<svg width="940" height="137" viewBox="0 0 940 137" fill="none" xmlns="http://www.w3.org/2000/svg">
<g clip-path="url(#clip0_273_443)">
<path d="M522.592 1.96708C537.902 1.96708 550.753 5.93332 560.906 13.6278C569.87 20.5291 576.613 30.4447 580.42 42.4228H565.269C562.572 36.5527 558.527 29.1755 551.467 23.5434C544.01 17.5941 534.491 14.7384 522.434 14.7384C508.235 14.7384 496.336 19.5772 488.007 28.7789C479.519 38.1392 474.997 51.7038 474.997 67.9654C474.997 84.0683 479.44 97.6329 487.769 107.152C496.098 116.671 507.997 121.668 522.116 121.668C536.236 121.668 547.897 116.988 555.988 108.024C562.572 100.727 566.538 90.9696 567.173 80.3401L567.252 79.4675H566.38H516.564V66.4582H580.42V132.139H566.3V122.144L566.459 114.291L566.538 111.673L565.031 113.895C561.382 119.289 555.829 124.207 549.404 127.697C540.996 132.298 531.159 134.678 520.292 134.678C502.84 134.678 487.134 128.332 476.108 116.75C464.606 104.772 458.577 88.0346 458.577 68.4413C458.577 49.7207 464.765 32.8245 475.949 20.9257C487.531 8.55104 503.634 1.96708 522.592 1.96708ZM522.592 1.17383C502.84 1.17383 486.579 8.31307 475.315 20.2911C464.051 32.2692 457.705 49.0861 457.705 68.362C457.705 88.8278 464.289 105.565 475.473 117.226C486.658 128.887 502.285 135.392 520.213 135.392C544.724 135.392 559.24 123.572 565.586 114.291L565.428 122.144V132.932H581.134V65.665H515.691V80.4987H566.3C565.745 90.0177 562.255 100.013 555.274 107.628C548.135 115.481 537.267 121.034 521.958 121.034C507.759 121.034 496.256 115.878 488.245 106.755C480.233 97.6329 475.632 84.3856 475.632 68.124C475.632 51.4658 480.312 38.3772 488.483 29.4928C496.653 20.4498 508.314 15.611 522.434 15.611C535.602 15.611 544.565 19.1013 550.991 24.2574C557.416 29.4135 561.462 36.1561 564.555 42.8194L564.793 43.2953H581.531L581.213 42.2641C577.644 30.6827 571.139 20.4498 561.462 13.0726C551.705 5.69535 538.854 1.17383 522.592 1.17383Z" fill="white"/>
<path d="M630.554 5.29911C644.356 5.29911 655.144 6.48898 663.315 12.2797C672.754 18.3084 677.593 27.9067 677.593 40.678C677.593 50.5936 674.42 58.6848 668.233 64.7928C662.918 70.0282 655.462 73.5978 646.577 75.2637C646.339 75.343 646.022 75.343 645.784 75.4223L644.673 75.581L645.229 76.6122L645.387 76.8502L645.705 77.3261C652.606 89.066 660.856 102.631 668.947 115.719L669.185 116.037C672.437 121.351 675.531 126.428 678.545 131.267H662.046L630.871 77.9607L630.633 77.5641H630.157H609.612H608.819V78.3573V131.267H595.254V5.29911H630.554ZM609.533 65.9033H610.326H630.395C640.152 65.9033 647.767 64.0789 652.923 60.5092C659.111 56.1464 662.046 50.1177 662.046 41.3919C662.046 36.1565 661.094 31.9523 659.031 28.5413C657.048 25.2097 654.192 22.7506 650.226 20.9261C645.308 18.5464 638.645 17.3565 630.395 17.3565H610.326H609.533V18.1497V65.1101V65.9033ZM630.554 4.50586H594.302V132.139H609.453V78.3573H629.998L661.411 132.06H679.814C679.656 131.822 679.497 131.505 679.338 131.267C676.245 126.19 672.913 120.796 669.581 115.243C661.649 102.313 653.241 88.5901 646.339 76.9295C646.181 76.6915 646.022 76.4535 645.943 76.2156C646.26 76.1362 646.498 76.1362 646.815 76.0569C663.473 72.9632 678.466 62.4924 678.466 40.678C678.466 27.8274 673.627 17.8324 663.791 11.5658C654.986 5.37842 643.404 4.50586 630.554 4.50586ZM610.326 65.1101V18.1497H630.395C638.724 18.1497 645.149 19.4189 649.83 21.64C653.558 23.3852 656.334 25.7649 658.238 28.9379C660.142 32.1902 661.173 36.2358 661.173 41.3919C661.173 50.2763 658.079 55.9084 652.447 59.8746C647.45 63.2856 640.152 65.1101 630.395 65.1101H610.326Z" fill="white"/>
<path d="M758.981 5.29911L809.749 131.346H795.391L779.526 91.6838L779.288 91.2078H778.733H718.763H718.208L717.97 91.6838L702.263 131.346H689.016L740.419 5.29911H758.981ZM728.441 67.4898L723.919 78.516L723.443 79.6265H724.633H772.783H773.973L773.576 78.516L768.658 65.824C766.041 59.0021 763.343 52.1801 760.726 45.5962C757.156 36.5531 753.428 27.2721 749.938 17.7531L749.224 15.77L748.43 17.7531C745.337 25.8443 742.005 34.094 738.197 43.2957L737.642 44.7236C734.152 53.0527 730.9 60.9852 728.441 67.4898ZM759.536 4.50586H739.863L687.906 132.139H702.898L718.763 92.0011H778.733L794.756 132.139H810.78L759.536 4.50586ZM724.633 78.8333L729.154 67.8071C731.614 61.3025 734.866 53.4493 738.277 45.0409L738.832 43.613C742.243 35.2046 745.892 26.3995 749.065 18.0704C752.555 27.5894 756.204 36.7911 759.853 45.9135C762.55 52.6561 765.247 59.3987 767.786 66.1413L772.704 78.8333H724.633Z" fill="white"/>
<path d="M938.572 4.50614V132.14H923.421V67.4901C923.421 60.9855 923.58 50.9112 923.659 40.361V38.4572V37.8226C923.738 31.318 923.818 25.2099 923.897 20.5298L923.976 14.8977L922.39 20.2918C916.837 38.9331 912.157 53.9255 908.111 66.0623L886.138 132.06H866.862L841.558 47.9762C839.575 41.4715 837.988 35.6808 836.481 29.8901L836.243 29.0175C835.45 26.0032 834.657 23.1475 833.943 20.4504L832.277 14.6597L832.356 20.6884C832.435 27.907 832.594 42.7407 832.594 60.5095V132.06H817.443V4.50614H843.7L866.862 80.5786V80.6579L866.942 80.7372C868.29 84.9414 869.956 90.9701 871.781 97.3161L872.098 98.4267C873.922 104.852 875.509 110.484 877.016 115.323L877.73 117.782L878.523 115.323C879.951 110.643 881.775 104.614 883.362 99.2992L883.6 98.5853L883.917 97.5541C886.138 90.0975 888.042 83.5929 889.47 79.4682V79.3888L913.823 4.50614H938.572ZM939.365 3.71289H913.188L888.597 79.2302C887.17 83.4342 885.107 90.3355 882.965 97.4748C882.807 98.03 882.648 98.5853 882.489 99.2199C880.824 104.931 879.078 110.643 877.651 115.164C876.143 110.246 874.398 104.217 872.732 98.3473L872.415 97.2368C870.67 90.8908 868.925 84.7828 867.576 80.5786L844.255 3.71289H816.65V132.933H833.387V60.5095C833.387 45.3585 833.229 31.08 833.149 20.6884C833.863 23.3855 834.656 26.1618 835.45 29.2555L835.688 30.1281C837.116 35.5222 838.702 41.4715 840.765 48.2935L866.307 132.933H886.773L908.905 66.3796C914.537 49.642 920.327 30.3661 923.183 20.5298C923.104 25.3686 923.024 31.7939 922.945 38.4572V40.361C922.786 50.3559 922.707 60.7475 922.707 67.4901V132.854H939.445V3.71289H939.365Z" fill="white"/>
<path fill-rule="evenodd" clip-rule="evenodd" d="M317.296 0.648438L319.049 1.52534L318.946 1.84862C318.404 3.55585 318.487 4.70687 319 5.42407C319.512 6.13862 320.555 6.56719 322.297 6.56719H340.542C341.174 6.56719 342.292 6.59274 343.892 6.6293C345.114 6.65722 346.617 6.69157 348.399 6.72584H366.471C369.807 6.5672 372.111 6.56719 373.224 6.56719H390.754C393.129 6.56719 394.948 6.11856 396.257 5.25445C397.556 4.39785 398.397 3.10628 398.775 1.32853L398.842 1.01444H400.874L395.553 50.2752H393.734L393.692 49.9252C391.947 35.1748 390.204 23.847 388.464 16.0135L388.461 16.0032L388.46 15.9927C387.987 13.1572 387.212 11.3728 386.132 10.4365L386.127 10.4321L386.122 10.4275C385.132 9.50825 383.211 9.02627 380.204 9.02627H365.723L322.665 121.736L322.663 121.742C321.641 124.178 321.186 126.105 321.186 127.538C321.186 129.074 321.669 130.154 322.58 130.864C323.512 131.589 324.954 131.98 326.977 131.98H330.547V134.28H323.011C322.099 134.28 320.82 134.239 319.184 134.188C318.529 134.167 317.818 134.144 317.05 134.122L317.039 134.121L317.027 134.12C314.331 133.882 312.045 133.725 310.16 133.725C308.274 133.725 305.909 133.882 302.893 134.12L302.885 134.121C300.018 134.28 297.867 134.28 296.516 134.28H290.17V131.98H292.471C295.972 131.98 298.729 131.126 300.781 129.457C302.855 127.61 304.728 124.662 306.461 120.489C306.461 120.487 306.461 120.486 306.462 120.484L349.325 9.02627H335.941C332.711 9.02627 330.242 9.42187 328.497 10.2566L328.481 10.2641L328.465 10.2702C326.664 10.9455 324.502 12.8544 321.723 15.9512C305.226 35.2244 295.229 46.7284 291.894 50.4601L291.651 50.7316L290.132 49.5918L317.296 0.648438ZM317.621 1.69775L291.161 49.3721L291.545 49.66C295.098 45.6695 305.006 34.2611 321.123 15.4316L321.129 15.4246C323.894 12.3444 326.168 10.2909 328.17 9.53364C330.072 8.62846 332.675 8.23301 335.941 8.23301H350.48L307.199 120.779L307.195 120.788C305.44 125.018 303.507 128.095 301.301 130.055L301.295 130.061L301.289 130.066C299.057 131.884 296.105 132.773 292.471 132.773H290.964V133.487H296.516C297.863 133.487 299.994 133.487 302.836 133.329C305.847 133.091 308.24 132.932 310.16 132.932C312.08 132.932 314.392 133.091 317.085 133.329C317.858 133.352 318.571 133.375 319.225 133.395C320.853 133.447 322.112 133.487 323.011 133.487H329.754V132.773H326.977C324.875 132.773 323.224 132.371 322.093 131.49C320.942 130.593 320.393 129.254 320.393 127.538C320.393 125.957 320.89 123.92 321.929 121.441C321.93 121.439 321.931 121.437 321.931 121.435L365.177 8.23301H380.204C383.223 8.23301 385.425 8.70176 386.656 9.84189C387.952 10.9676 388.761 12.9855 389.24 15.8517C390.975 23.6619 392.707 34.9002 394.438 49.482H394.84L399.99 1.80769H399.479C399.031 3.60415 398.11 4.98265 396.694 5.91663C395.208 6.89682 393.218 7.36044 390.754 7.36044H373.224C372.115 7.36044 369.822 7.36044 366.5 7.51863L366.491 7.51908H348.395L348.387 7.51901C346.588 7.4844 345.078 7.44987 343.855 7.42191C342.269 7.38564 341.166 7.36044 340.542 7.36044H322.297C320.469 7.36044 319.093 6.91643 318.355 5.88583C317.664 4.92114 317.626 3.57004 318.093 1.93368L317.621 1.69775ZM276.773 2.31916L283.955 43.4764L282.143 44.1237L282.018 43.7319C278.1 31.3838 273.382 22.1625 267.873 16.0341C262.373 9.91622 256.089 6.88449 249.001 6.88449C242.352 6.88449 236.9 8.99264 232.538 13.1202C228.259 17.2439 226.155 22.4526 226.155 28.6988C226.155 38.4038 230.693 48.308 239.855 58.4173L239.859 58.4224L245.41 64.7655C245.411 64.7661 245.411 64.7667 245.411 64.7673C249.377 69.2086 252.398 72.8644 254.391 75.5745C256.56 78.2267 258.557 81.6682 260.389 85.8891C262.313 90.0592 263.2 94.081 263.2 97.9496C263.2 109.006 259.188 118.078 251.171 125.293C251.17 125.294 251.17 125.294 251.17 125.294L250.905 124.999L251.171 125.293C243.166 132.578 233.869 136.105 223.379 136.105C219.2 136.105 213.924 135.142 207.407 133.313L207.404 133.313C204.233 132.401 201.701 131.709 199.785 131.245C197.855 130.777 196.592 130.552 195.932 130.552C194.467 130.552 193.394 130.981 192.654 131.783C191.906 132.594 191.447 133.841 191.331 135.576L191.309 135.903L189.319 136.151L183.839 90.5304L185.811 89.914L185.922 90.3051C190.079 104.874 195.294 115.758 201.547 122.995C207.79 130.219 215.063 133.804 223.379 133.804C231.389 133.804 237.709 131.529 242.459 127.014C242.458 127.015 242.457 127.016 242.456 127.017L242.734 127.3L242.46 127.012C242.46 127.013 242.46 127.013 242.459 127.014C247.207 122.342 249.635 116.106 249.635 108.103C249.635 99.4529 244.091 88.84 232.921 76.3216L233.215 76.0558L232.919 76.3199L227.528 70.3728C218.516 60.4054 214.019 50.1607 214.019 39.725C214.019 29.9433 217.471 21.5904 224.371 14.8505L224.373 14.849C231.424 8.03774 239.613 4.66339 249.08 4.66339C251.982 4.66339 256.063 5.30647 261.302 6.49706C261.301 6.49687 261.3 6.49668 261.299 6.49649L261.217 6.88449L261.305 6.49772C261.304 6.49751 261.303 6.49728 261.302 6.49706C263.916 7.05162 266.012 7.46679 267.591 7.74316C269.183 8.02166 270.22 8.15368 270.736 8.15368C272.199 8.15368 273.217 7.70738 273.865 6.88661C274.525 6.05044 274.859 4.75365 274.781 2.93511L274.766 2.57L276.773 2.31916ZM275.585 3.26711C275.61 5.00571 275.261 6.39814 274.488 7.37814C273.649 8.44133 272.367 8.94695 270.736 8.94695C270.141 8.94695 269.037 8.80131 267.455 8.52454C265.861 8.24573 263.754 7.82818 261.134 7.27248L261.129 7.27125C255.899 6.08252 251.889 5.45664 249.08 5.45664C239.827 5.45664 231.833 8.74562 224.923 15.4195C218.181 22.006 214.812 30.1522 214.812 39.725C214.812 49.9137 219.198 59.9763 228.115 69.84M228.115 69.84L233.509 75.7894L233.511 75.7917C244.709 88.3394 250.429 99.1435 250.429 108.103C250.429 116.282 247.939 122.736 243.013 127.582L243.008 127.587C238.08 132.272 231.549 134.598 223.379 134.598C214.798 134.598 207.317 130.885 200.947 123.514C194.644 116.22 189.425 105.342 185.271 90.9135L184.705 91.0904L190.012 135.265L190.565 135.196C190.722 133.516 191.209 132.178 192.072 131.245C192.997 130.242 194.305 129.759 195.932 129.759C196.701 129.759 198.056 130.01 199.972 130.474C201.904 130.942 204.448 131.637 207.622 132.55C214.114 134.371 219.308 135.312 223.379 135.312C233.672 135.312 242.779 131.858 250.637 124.706L250.64 124.704C258.487 117.642 262.407 108.786 262.407 97.9496C262.407 94.2047 261.549 90.2948 259.667 86.2167L259.663 86.2088C257.849 82.0267 255.883 78.6504 253.771 76.069L253.764 76.0611L253.758 76.0528C251.785 73.37 248.78 69.7316 244.818 65.2938L244.816 65.2908L239.268 58.95C239.267 58.9491 239.266 58.9482 239.264 58.9473C230.025 48.7504 225.362 38.6656 225.362 28.6988C225.362 22.2535 227.542 16.8329 231.988 12.5482L231.99 12.5458C236.513 8.26606 242.165 6.09124 249.001 6.09124C256.349 6.09124 262.837 9.24688 268.462 15.5037C274.019 21.6841 278.739 30.8938 282.65 43.1004L283.059 42.9542L276.121 3.20002L275.585 3.26711M433.104 6.48786H433.511C434.422 6.48786 435.545 6.54072 436.865 6.60287C437.171 6.61724 437.486 6.6321 437.812 6.64692L437.819 6.64726L437.827 6.64788C439.715 6.80514 441.05 6.80516 441.919 6.80516C442.734 6.80516 443.649 6.75492 444.761 6.69388C445.034 6.67892 445.318 6.6633 445.616 6.64761C447.139 6.48786 448.342 6.48786 449.214 6.48786H449.62L447.789 120.564V120.572C447.632 124.657 448.344 127.478 449.766 129.274C451.168 131.046 453.405 131.901 456.753 131.901H457.705V134.28H450.883C450.362 134.28 449.506 134.253 448.306 134.213C447.476 134.186 446.481 134.154 445.319 134.122L445.307 134.121L445.295 134.12C442.599 133.882 440.313 133.725 438.587 133.725C436.62 133.725 433.856 133.882 430.445 134.121H430.436C427.096 134.28 425.027 134.28 424.23 134.28H419.549V131.98H421.602C424.598 131.824 427.034 130.752 428.938 128.773C430.845 126.711 431.848 124.11 432.003 120.859C432.003 120.857 432.004 120.856 432.004 120.855L432.548 99.0602H379.293L371.4 109.688C369.188 112.65 367.519 115.305 366.402 117.644C365.286 119.986 364.736 121.987 364.736 123.651C364.736 126.516 365.508 128.574 366.986 129.922C368.471 131.276 370.737 131.98 373.858 131.98H376.159V134.28H371.478C370.561 134.28 369.167 134.244 367.331 134.196C366.456 134.173 365.482 134.147 364.409 134.122L364.4 134.121H364.39C361.052 133.882 358.69 133.725 357.359 133.725C356.432 133.725 354.516 133.856 351.52 134.061L350.643 134.121H350.634C347.135 134.28 344.828 134.28 343.715 134.28H339.431V131.98H340.938C345.016 131.98 349.29 130.135 353.766 126.287C358.099 122.426 363.314 116.424 369.335 108.264L369.337 108.262L433.507 22.6218L433.104 6.48786ZM433.917 7.28433L434.307 22.8771L369.973 108.735L369.972 108.736C363.937 116.916 358.683 122.969 354.291 126.882L354.286 126.887C349.72 130.812 345.269 132.773 340.938 132.773H340.224V133.487H343.715C344.822 133.487 347.115 133.487 350.593 133.329C350.595 133.329 350.596 133.329 350.598 133.329L351.493 133.267C354.459 133.064 356.404 132.932 357.359 132.932C358.724 132.932 361.117 133.091 364.438 133.329C365.516 133.355 366.494 133.38 367.368 133.403C369.195 133.451 370.571 133.487 371.478 133.487H375.365V132.773H373.858C370.634 132.773 368.14 132.048 366.452 130.508C364.756 128.961 363.943 126.655 363.943 123.651C363.943 121.823 364.543 119.7 365.687 117.303C366.832 114.901 368.534 112.201 370.764 109.215L378.895 98.2669H433.362L432.797 120.884L432.796 120.894C432.634 124.301 431.575 127.093 429.518 129.314L429.513 129.319C427.454 131.461 424.817 132.609 421.632 132.772L421.622 132.773H420.343V133.487H424.23C425.019 133.487 427.073 133.487 430.394 133.329C433.802 133.091 436.589 132.932 438.587 132.932C440.349 132.932 442.661 133.091 445.353 133.329C446.531 133.362 447.53 133.394 448.358 133.421C449.54 133.459 450.374 133.487 450.883 133.487H456.911V132.694H456.753C453.278 132.694 450.756 131.803 449.144 129.767C447.552 127.756 446.836 124.709 446.996 120.546C446.996 120.545 446.996 120.543 446.996 120.542L448.814 7.28161C447.995 7.28451 446.956 7.3042 445.688 7.43758L445.678 7.43867L445.668 7.43921C445.373 7.45474 445.089 7.47033 444.816 7.48536C443.701 7.54659 442.758 7.59841 441.919 7.59841C441.044 7.59841 439.685 7.59843 437.769 7.43901C437.44 7.42408 437.124 7.40918 436.819 7.39484C435.694 7.34191 434.73 7.29654 433.917 7.28433ZM47.6742 6.56719H55.1308C56.4195 6.56719 58.4994 6.72756 61.3456 6.96472C64.1868 7.12241 66.5552 7.12246 68.378 7.12246C69.8738 7.12246 71.7448 7.06892 73.9549 7.00566C74.4266 6.99217 74.9137 6.97822 75.416 6.96427C78.2593 6.72736 80.3371 6.56719 81.6253 6.56719H87.9713V8.86762H85.6709C82.1734 8.86762 79.4161 9.7989 77.361 11.5493L77.3544 11.5549C75.2895 13.2374 73.4173 16.1776 71.6814 20.3583C71.6807 20.3599 71.68 20.3615 71.6794 20.3631L32.812 121.736L32.8096 121.742C31.788 124.178 31.3333 126.105 31.3333 127.538C31.3333 129.074 31.8155 130.154 32.7272 130.864C33.6582 131.589 35.1011 131.98 37.124 131.98H40.6937V134.28H33.3958C32.4144 134.28 31.0154 134.238 29.2376 134.185C28.5591 134.165 27.8254 134.143 27.0387 134.122L27.0268 134.121L27.0149 134.12C24.3193 133.882 22.0337 133.725 20.1485 133.725C18.263 133.725 15.9776 133.882 13.1215 134.12L13.1106 134.121C10.2438 134.28 8.09318 134.28 6.74291 134.28H0.396606V131.98H2.6177C6.28669 131.98 9.11679 131.122 11.0837 129.459C13.1561 127.616 14.951 124.669 16.6063 120.491C16.6064 120.491 16.6066 120.491 16.6068 120.491L55.7947 19.1095C56.6507 17.0083 57.0346 15.0759 57.0346 13.3098C57.0346 11.7735 56.5524 10.6938 55.6407 9.98373C54.7096 9.25862 53.2668 8.86762 51.2439 8.86762H47.6742V6.56719ZM48.4675 7.36044V8.07436H51.2439C53.3458 8.07436 54.9966 8.47663 56.1281 9.35785C57.2788 10.2541 57.8278 11.5938 57.8278 13.3098C57.8278 15.1916 57.4188 17.2244 56.5307 19.4055C56.5302 19.4066 56.5298 19.4077 56.5293 19.4088L17.3455 120.779L17.3442 120.783C15.669 125.011 13.8163 128.092 11.607 130.055L11.5997 130.062C9.44187 131.887 6.40305 132.773 2.6177 132.773H1.18986V133.487H6.7426C8.0885 133.487 10.2196 133.487 13.0612 133.329C15.9141 133.091 18.2276 132.932 20.1485 132.932C22.0682 132.932 24.3794 133.091 27.0728 133.329C27.8632 133.351 28.5979 133.373 29.2753 133.393C31.0464 133.446 32.427 133.487 33.3958 133.487H39.9004V132.773H37.124C35.0221 132.773 33.3713 132.371 32.2398 131.49C31.0891 130.593 30.5401 129.254 30.5401 127.538C30.5401 125.957 31.0366 123.92 32.0757 121.441L70.9466 20.0589C72.6995 15.836 74.6334 12.7502 76.8498 10.9427C79.0782 9.04595 82.0306 8.07436 85.6709 8.07436H87.178V7.36044H81.6253C80.3767 7.36044 78.3333 7.51715 75.4709 7.75569L75.4599 7.7566L75.449 7.75691C74.9454 7.77089 74.4563 7.78489 73.9822 7.79847C71.7717 7.86174 69.8862 7.91571 68.378 7.91571H68.3761C66.5515 7.91571 64.1628 7.91571 61.2962 7.75645L61.2852 7.75584C58.4228 7.51731 56.3796 7.36044 55.1308 7.36044H48.4675ZM100.822 6.56719H108.12C109.256 6.56719 110.615 6.62301 112.184 6.68751C112.49 6.70007 112.804 6.71296 113.125 6.72584H122.378C123.897 6.56719 125.256 6.56719 126.517 6.56719H126.832L154.365 114.889L185.961 32.7671C185.962 32.7661 185.962 32.7651 185.963 32.7641C188.098 26.9117 189.111 22.363 189.111 18.9419C189.111 16.0027 188.339 13.7224 186.75 11.9051L186.743 11.8985L186.739 11.8917C185.247 10.0268 182.915 9.02429 179.741 8.86762H177.688V6.56719H184.272C184.936 6.56719 186.511 6.69879 188.902 6.89867C189.157 6.91994 189.421 6.94198 189.694 6.96472C192.534 7.12241 194.903 7.12246 196.726 7.12246C198.353 7.12246 200.297 7.0591 202.455 6.98879C202.702 6.98073 202.952 6.97258 203.205 6.96443C205.643 6.72849 207.331 6.56719 208.069 6.56719H213.86V8.86762H211.401C206.852 8.86762 202.668 10.8668 198.818 14.9407C194.962 19.0225 191.455 25.176 188.291 33.4414L155.416 119.156L159.074 134.28H154.108L154.087 134.278C152.6 134.122 151.507 134.122 150.797 134.122C150.129 134.122 149.271 134.169 148.209 134.227C147.905 134.244 147.586 134.262 147.248 134.28L147.237 134.28H143.191L114.47 22.3851L81.5222 108.08C81.5214 108.081 81.5214 108.083 81.5206 108.083C79.386 113.936 78.373 118.484 78.373 121.906C78.373 124.846 79.1445 127.209 80.7392 129.107L80.74 129.108C82.2282 130.894 84.5587 131.823 87.7428 131.98H89.6371V134.28H83.2911C82.8897 134.28 82.1401 134.256 81.0629 134.22C80.207 134.192 79.1446 134.157 77.886 134.122L77.8751 134.121L77.8641 134.12C75.0073 133.882 72.7223 133.725 70.9958 133.725C69.1909 133.725 66.985 133.882 64.5294 134.119L64.523 134.12L64.5167 134.121C62.0455 134.28 60.3701 134.28 59.6523 134.28H53.6236V131.98H56.2413C60.9328 131.98 65.2726 129.678 69.186 125.061L69.1889 125.057C73.2768 120.34 76.5864 114.513 79.191 107.489L79.1926 107.485L113.261 18.6703C112.553 15.2729 111.471 12.8445 110.197 11.3456L110.191 11.3385L110.185 11.3312C108.927 9.70196 107.071 8.86762 104.55 8.86762H100.822V6.56719ZM101.615 7.36044V8.07436H104.55C107.262 8.07436 109.37 8.9828 110.808 10.8389C112.214 12.4967 113.341 15.1055 114.061 18.6244L114.084 18.7379L79.9349 107.765C79.9341 107.766 79.9341 107.767 79.9341 107.768C77.3034 114.861 73.9503 120.774 69.7895 125.575C65.7708 130.317 61.2268 132.773 56.2413 132.773H54.4169V133.487H59.6523C60.362 133.487 62.0163 133.487 64.4592 133.329C66.9191 133.091 69.1533 132.932 70.9958 132.932C72.7573 132.932 75.0696 133.091 77.9192 133.329C79.1976 133.364 80.2649 133.4 81.1168 133.428C82.1734 133.463 82.9 133.487 83.2911 133.487H88.8439V132.773H87.7238L87.7143 132.772C84.3985 132.611 81.8141 131.636 80.1308 129.616C78.3944 127.548 77.5797 124.994 77.5797 121.906C77.5797 118.346 78.629 113.695 80.7765 107.808L80.7789 107.802L114.62 19.7823L143.806 133.487H147.217C147.541 133.47 147.852 133.453 148.149 133.436C149.216 133.378 150.105 133.329 150.797 133.329C151.511 133.329 152.631 133.329 154.149 133.487H158.067L154.586 119.102L187.55 33.1579C190.733 24.8444 194.285 18.5837 198.242 14.3959C202.206 10.2001 206.589 8.07436 211.401 8.07436H213.067V7.36044H208.069C207.38 7.36044 205.742 7.51586 203.268 7.75521L203.256 7.75644L203.243 7.75685C202.986 7.76515 202.731 7.77345 202.479 7.78167C200.325 7.85187 198.366 7.91571 196.726 7.91571H196.724C194.899 7.91571 192.51 7.91571 189.644 7.75645L189.632 7.75584C189.371 7.73401 189.118 7.71271 188.873 7.69231C186.443 7.48925 184.901 7.36044 184.272 7.36044H178.481V8.07436H179.76L179.769 8.07483C183.091 8.23686 185.673 9.29455 187.353 11.3896C189.09 13.3788 189.904 15.8558 189.904 18.9419C189.904 22.5007 188.854 27.1527 186.707 33.039L186.705 33.0455L154.209 117.5L126.215 7.36052C125.037 7.36149 123.804 7.3733 122.44 7.5169L122.419 7.51908H113.109L113.101 7.51877C112.774 7.50567 112.456 7.49261 112.146 7.4799C110.577 7.41541 109.238 7.36044 108.12 7.36044H101.615ZM434.561 23.991L433.425 97.3944H379.651L434.561 23.991ZM381.234 96.6011H432.644L433.729 26.4261L381.234 96.6011Z" fill="white"/>
</g>
<defs>
<clipPath id="clip0_273_443">
<rect width="940" height="136.439" fill="white" transform="translate(0 0.380859)"/>
</clipPath>
</defs>
</svg>
