<svg width="597" height="664" viewBox="0 0 597 664" fill="none" xmlns="http://www.w3.org/2000/svg">
<g clip-path="url(#clip0_456_2)">
<path d="M133.827 0.000395213L262.658 2.83511C275.97 3.12503 286.542 14.174 286.252 27.4778L277.517 423.984C277.452 427.302 276.679 430.555 275.293 433.583L177.823 644.415C169.637 662.1 144.947 663.292 135.084 646.509L3.31976 421.954C-3.48118 410.358 0.515582 395.411 12.248 388.775L201.933 281.281C209.314 277.094 213.955 269.331 214.149 260.826L215.632 193.663C215.889 182.324 208.186 172.338 197.13 169.665L103.754 147.245C90.7972 144.12 82.8037 131.138 85.9302 118.189L109.814 18.4905C112.457 7.47374 122.449 -0.257306 133.827 0.000395213Z" fill="white"/>
<path d="M481.352 7.15109L352.521 4.31637C339.209 4.02646 328.153 14.5922 327.863 27.8961L319.128 424.402C319.064 427.72 319.676 431.006 320.933 434.066L409.023 648.989C416.404 667.028 441.03 669.315 451.602 652.951L593.132 434.42C600.449 423.113 597.097 408.038 585.687 400.887L400.901 285.147C393.713 280.637 389.394 272.68 389.587 264.176L391.07 197.013C391.328 185.674 399.45 176.042 410.603 173.852L504.881 155.587C517.967 153.042 526.509 140.415 523.995 127.337L504.526 26.672C502.367 15.5264 492.73 7.37658 481.352 7.15109Z" fill="white"/>
</g>
<defs>
<clipPath id="clip0_456_2">
<rect width="597" height="664" fill="white"/>
</clipPath>
</defs>
</svg>
