<?xml version="1.0" standalone="no"?>
<!DOCTYPE svg PUBLIC "-//W3C//DTD SVG 1.1//EN" "http://www.w3.org/Graphics/SVG/1.1/DTD/svg11.dtd" >
<svg xmlns="http://www.w3.org/2000/svg" xmlns:xlink="http://www.w3.org/1999/xlink" version="1.1">
<metadata>
Created by FontForge 20200314 at Mon Nov  3 02:34:29 2014
 By Unknown
Copyright (c) 2012 by Ryoichi Tsunekawa. All rights reserved.
</metadata>
<defs>
<font id="AllRoundGothicW01-XLig" horiz-adv-x="522" >
  <font-face 
    font-family="AllRoundGothicW01-XLig"
    font-weight="275"
    font-stretch="normal"
    units-per-em="1000"
    panose-1="2 11 4 3 2 2 2 2 1 4"
    ascent="800"
    descent="-200"
    x-height="494"
    cap-height="654"
    bbox="-61 -224 1180 894"
    underline-thickness="50"
    underline-position="-175"
    unicode-range="U+0020-2122"
  />
<missing-glyph horiz-adv-x="650" 
d="M100 0v654h450v-654h-450zM526 630h-402v-606h402v606z" />
    <glyph glyph-name=".notdef" horiz-adv-x="650" 
d="M100 0v654h450v-654h-450zM526 630h-402v-606h402v606z" />
    <glyph glyph-name=".null" horiz-adv-x="0" 
 />
    <glyph glyph-name="nonmarkingreturn" horiz-adv-x="333" 
 />
    <glyph glyph-name="space" unicode=" " horiz-adv-x="266" 
 />
    <glyph glyph-name="exclam" unicode="!" horiz-adv-x="242" 
d="M121 -13q-11 0 -20 9t-9 20t9 20t20 9t20 -9t9 -20t-9 -20t-20 -9zM111 147l-5 507h30l-5 -507h-20z" />
    <glyph glyph-name="quotedbl" unicode="&#x22;" horiz-adv-x="326" 
d="M95 426l-9 228h33l-9 -228h-15zM215 426l-9 228h33l-9 -228h-15z" />
    <glyph glyph-name="numbersign" unicode="#" horiz-adv-x="582" 
d="M340 0l25 184h-189l-25 -184h-23l25 184h-113l3 21h113l34 244h-112l3 21h112l26 184h23l-26 -184h189l26 184h23l-26 -184h114l-3 -21h-114l-34 -244h113l-3 -21h-113l-25 -184h-23zM402 449h-189l-34 -244h189z" />
    <glyph glyph-name="dollar" unicode="$" 
d="M250 -70v74q-45 1 -82.5 14t-64.5 36t-43 55t-17 72h25q1 -35 14.5 -63t37.5 -48t57.5 -31t72.5 -12v292q-36 5 -70.5 12.5t-61.5 24t-43 44t-16 73.5q0 39 14 71t39 55t60.5 36t77.5 15v74h25v-75q40 -2 74 -15t58.5 -35t38.5 -52.5t15 -67.5h-25q-1 34 -13.5 60.5
t-34 45t-50.5 29t-63 12.5v-285q37 -5 73.5 -12.5t65 -23t46 -44t17.5 -75.5q0 -41 -15 -73.5t-42 -56t-64 -37t-81 -15.5v-74h-25zM451 186q0 38 -14.5 61.5t-39 37t-56.5 20t-66 11.5v-289q78 4 127 45.5t49 113.5zM85 473q0 -37 13.5 -60t36.5 -37t52.5 -21t62.5 -11v283
q-36 -2 -66.5 -12.5t-52 -30t-34 -47.5t-12.5 -64z" />
    <glyph glyph-name="percent" unicode="%" horiz-adv-x="684" 
d="M105 0l442 654h30l-442 -654h-30zM186 368q-31 0 -58 12t-47.5 32t-32 47.5t-11.5 58.5t11.5 58t32 47t47.5 32t58 12t58 -12t47.5 -32t32 -47t11.5 -58t-11.5 -58.5t-32 -47.5t-47.5 -32t-58 -12zM186 391q26 0 49 10t39.5 27t26 40.5t9.5 49.5t-9.5 49t-26 40t-39.5 27
t-49 10t-49 -10t-39.5 -27t-26 -40t-9.5 -49t9.5 -49.5t26 -40.5t39.5 -27t49 -10zM498 -13q-31 0 -58 12t-47.5 32t-32 47.5t-11.5 58.5t11.5 58t32 47t47.5 32t58 12t58 -12t47.5 -32t32 -47t11.5 -58t-11.5 -58.5t-32 -47.5t-47.5 -32t-58 -12zM498 10q26 0 49 10
t39.5 27t26 40.5t9.5 49.5t-9.5 49t-26 40t-39.5 27t-49 10t-49 -10t-39.5 -27t-26 -40t-9.5 -49t9.5 -49.5t26 -40.5t39.5 -27t49 -10z" />
    <glyph glyph-name="ampersand" unicode="&#x26;" horiz-adv-x="566" 
d="M378 337v-2q50 -20 80 -59t30 -97q0 -44 -17 -79.5t-47 -60.5t-72 -38.5t-92 -13.5t-92 13.5t-72 38.5t-47 60.5t-17 79.5q0 68 36.5 110.5t99.5 58.5v2q-51 15 -80.5 52t-29.5 97q0 38 15 69t42 53t64 34t81 12q84 0 138.5 -42.5t62.5 -115.5h-27q-3 27 -15 51.5t-33 43
t-52.5 29t-73.5 10.5q-44 0 -77 -11.5t-55 -31.5t-33 -46t-11 -55q0 -69 44.5 -104t118.5 -35h287v-23h-156zM461 179q0 36 -13.5 65t-38 50t-59 32t-77.5 11h-26q-86 0 -137 -41.5t-51 -116.5q0 -35 12.5 -65.5t37.5 -53t63 -36t88 -13.5t88 13.5t63 36t37.5 53t12.5 65.5z
" />
    <glyph glyph-name="quotesingle" unicode="'" horiz-adv-x="206" 
d="M95 426l-9 228h33l-9 -228h-15z" />
    <glyph glyph-name="parenleft" unicode="(" horiz-adv-x="355" 
d="M308 -219q-55 34 -100 81.5t-77 106.5t-49.5 128.5t-17.5 148.5t17.5 148.5t49.5 128.5t77 106.5t100 81.5l1 -27q-49 -32 -89.5 -76.5t-69 -100t-44.5 -121t-16 -140.5t16 -140.5t44.5 -121t69 -100t89.5 -76.5z" />
    <glyph glyph-name="parenright" unicode=")" horiz-adv-x="355" 
d="M46 -192q49 32 89.5 76.5t69 100t44.5 121t16 140.5t-16 140.5t-44.5 121t-69 100t-89.5 76.5l1 27q55 -34 100 -81.5t77 -106.5t49.5 -128.5t17.5 -148.5t-17.5 -148.5t-49.5 -128.5t-77 -106.5t-100 -81.5z" />
    <glyph glyph-name="asterisk" unicode="*" horiz-adv-x="526" 
d="M384 240l-120 176h-2l-120 -176l-22 17l132 168l-1 2l-206 59l9 27l201 -73l1 2l-7 212h28l-7 -212l1 -2l201 73l9 -27l-206 -59l-1 -2l132 -168z" />
    <glyph glyph-name="plus" unicode="+" horiz-adv-x="562" 
d="M270 33v218h-218v22h218v218h22v-218h218v-22h-218v-218h-22z" />
    <glyph glyph-name="comma" unicode="," horiz-adv-x="226" 
d="M83 -114l27 101q-11 2 -18.5 10t-7.5 19t9 20t20 9t20 -9t9 -20q0 -8 -3 -17l-38 -113h-18z" />
    <glyph glyph-name="hyphen" unicode="-" horiz-adv-x="346" 
d="M23 259v25h300v-25h-300z" />
    <glyph glyph-name="period" unicode="." horiz-adv-x="226" 
d="M113 -13q-11 0 -20 9t-9 20t9 20t20 9t20 -9t9 -20t-9 -20t-20 -9z" />
    <glyph glyph-name="slash" unicode="/" horiz-adv-x="426" 
d="M6 -100l368 754h25l-368 -754h-25z" />
    <glyph glyph-name="zero" unicode="0" 
d="M490 217q0 -52 -17 -94.5t-47 -72.5t-72 -46.5t-93 -16.5t-93 16.5t-72 46.5t-47 72.5t-17 94.5v220q0 52 17 94.5t47 72.5t72 46.5t93 16.5t93 -16.5t72 -46.5t47 -72.5t17 -94.5v-220zM464 437q0 47 -14.5 85t-41.5 65t-64.5 41.5t-82.5 14.5t-82.5 -14.5t-64.5 -41.5
t-41.5 -65t-14.5 -85v-220q0 -47 14.5 -85t41.5 -65t64.5 -41.5t82.5 -14.5t82.5 14.5t64.5 41.5t41.5 65t14.5 85v220z" />
    <glyph glyph-name="one" unicode="1" 
d="M293 0v630h-178v24h204v-654h-26z" />
    <glyph glyph-name="two" unicode="2" 
d="M57 0v20l277 241q49 43 79.5 89t30.5 106q0 40 -12.5 74.5t-35.5 59.5t-56.5 39t-75.5 14t-76 -14t-57.5 -40t-36.5 -62t-13 -80v-9h-24v9q0 49 14 89.5t41 69.5t65.5 45t86.5 16t86 -16t65 -44t41.5 -67t14.5 -84q0 -34 -8.5 -62t-24 -53t-38.5 -49t-51 -49l-248 -217
v-2h362v-24h-406z" />
    <glyph glyph-name="three" unicode="3" 
d="M191 338v22h83q74 0 116.5 35t42.5 105q0 29 -11 55t-32.5 45.5t-54 31t-74.5 11.5t-73.5 -11.5t-53 -31.5t-33 -46t-13.5 -55h-25q6 78 59.5 123t138.5 45q43 0 79 -12t62.5 -34t41.5 -53.5t15 -70.5q0 -58 -29 -94.5t-79 -51.5v-2q61 -15 97.5 -58.5t36.5 -111.5
q0 -44 -17 -79.5t-47 -60.5t-71 -38.5t-89 -13.5t-89 13.5t-70.5 39t-46.5 60.5t-18 79h25q0 -34 13.5 -64.5t38.5 -53.5t62 -36.5t85 -13.5q49 0 85.5 13.5t61.5 36.5t37.5 53.5t12.5 64.5q0 75 -49 117t-135 42h-83z" />
    <glyph glyph-name="four" unicode="4" 
d="M395 0v161h-373v20l373 473h26v-470h88v-23h-88v-161h-26zM393 611l-335 -425v-2h337v427h-2z" />
    <glyph glyph-name="five" unicode="5" 
d="M115 631l-32 -270h2q28 36 71 57.5t103 21.5q51 0 93 -17t72 -47t47 -71t17 -89v-6q0 -48 -17 -89t-47 -71t-72 -46.5t-93 -16.5q-45 0 -83.5 13t-68 37t-49 57.5t-25.5 74.5h25q14 -71 67.5 -114.5t133.5 -43.5q45 0 82.5 15t64.5 41t41.5 62.5t14.5 80.5v6
q0 43 -14.5 80t-41.5 63.5t-64.5 41.5t-82.5 15q-63 0 -110.5 -28.5t-71.5 -76.5l-24 8l41 335h334v-23h-313z" />
    <glyph glyph-name="six" unicode="6" 
d="M494 217q0 -52 -17 -94.5t-47 -72.5t-72 -46.5t-93 -16.5t-93 16.5t-72 46.5t-47 72.5t-17 94.5v1q0 43 13 83t49 90l187 263h31l-168 -236v-2q25 15 54.5 23.5t62.5 8.5q51 0 93 -16.5t72 -46.5t47 -72.5t17 -94.5v-1zM468 218q0 47 -14.5 85t-41.5 65t-64.5 41.5
t-82.5 14.5t-82 -15t-64 -42t-42 -65t-15 -84v-1q0 -47 14.5 -85t41.5 -65t64.5 -41.5t82.5 -14.5t82.5 14.5t64.5 41.5t41.5 65t14.5 85v1z" />
    <glyph glyph-name="seven" unicode="7" 
d="M113 0h-30l359 629v2h-388v23h419v-20z" />
    <glyph glyph-name="eight" unicode="8" 
d="M489 179q0 -44 -17 -79.5t-47 -60.5t-72 -38.5t-92 -13.5t-92 13.5t-72 38.5t-47 60.5t-17 79.5q0 68 37.5 111t100.5 58v2q-51 15 -81.5 52t-30.5 95q0 39 15 70.5t42 53.5t64 34t81 12t81 -12t64 -34t42 -53.5t15 -70.5q0 -58 -30.5 -95t-81.5 -52v-2q62 -15 100 -58
t38 -111zM462 179q0 75 -51 117t-137 42h-26q-86 0 -137 -42t-51 -117q0 -34 12.5 -64.5t37.5 -53.5t63 -36.5t88 -13.5t88 13.5t63 36.5t37.5 53.5t12.5 64.5zM437 499q0 29 -11 55t-33 46t-55 31.5t-77 11.5t-77 -11.5t-55 -31.5t-33 -46t-11 -55q0 -69 44.5 -104
t118.5 -35h26q74 0 118.5 35t44.5 104z" />
    <glyph glyph-name="nine" unicode="9" 
d="M206 0l168 236v2q-25 -15 -54.5 -23.5t-62.5 -8.5q-51 0 -93 16.5t-72 46.5t-47 72.5t-17 94.5v1q0 52 17 94.5t47 72.5t72 46.5t93 16.5t93 -16.5t72 -46.5t47 -72.5t17 -94.5v-1q0 -22 -3 -42t-10 -41t-19 -43t-30 -47l-187 -263h-31zM460 437q0 47 -14.5 85t-41.5 65
t-64.5 41.5t-82.5 14.5t-82.5 -14.5t-64.5 -41.5t-41.5 -65t-14.5 -85v-1q0 -47 14.5 -85t41.5 -65t64.5 -41.5t82.5 -14.5t82 15t64 42t42 65t15 84v1z" />
    <glyph glyph-name="colon" unicode=":" horiz-adv-x="226" 
d="M113 -13q-11 0 -20 9t-9 20t9 20t20 9t20 -9t9 -20t-9 -20t-20 -9zM113 382q-11 0 -20 9t-9 20t9 20t20 9t20 -9t9 -20t-9 -20t-20 -9z" />
    <glyph glyph-name="semicolon" unicode=";" horiz-adv-x="226" 
d="M83 -114l27 101q-11 2 -18.5 10t-7.5 19t9 20t20 9t20 -9t9 -20q0 -8 -3 -17l-38 -113h-18zM113 382q-11 0 -20 9t-9 20t9 20t20 9t20 -9t9 -20t-9 -20t-20 -9z" />
    <glyph glyph-name="less" unicode="&#x3c;" horiz-adv-x="562" 
d="M52 253v18l458 218v-25l-425 -201v-2l425 -201v-25z" />
    <glyph glyph-name="equal" unicode="=" horiz-adv-x="562" 
d="M52 371v22h458v-22h-458zM52 131v22h458v-22h-458z" />
    <glyph glyph-name="greater" unicode="&#x3e;" horiz-adv-x="562" 
d="M52 35v25l425 201v2l-425 201v25l458 -218v-18z" />
    <glyph glyph-name="question" unicode="?" horiz-adv-x="474" 
d="M198 147v20q0 41 16 67t40 44.5t52.5 34.5t52.5 36.5t40 49.5t16 75q0 40 -13 71.5t-37 53t-56.5 33t-71.5 11.5t-72 -11.5t-57.5 -33.5t-38 -53t-13.5 -71v-9h-24v9q0 44 15.5 80t43 61t65 38.5t81.5 13.5q45 0 82.5 -13.5t64.5 -38t42.5 -60.5t15.5 -81
q0 -50 -16.5 -82.5t-41 -54.5t-53 -37.5t-53 -33t-41 -40.5t-16.5 -59v-20h-23zM210 -13q-11 0 -20 9t-9 20t9 20t20 9t20 -9t9 -20t-9 -20t-20 -9z" />
    <glyph glyph-name="at" unicode="@" horiz-adv-x="762" 
d="M468 219v8.5t1 9.5h-2q-26 -38 -64.5 -60.5t-80.5 -22.5q-54 0 -82 34t-28 85q0 33 12.5 72.5t37 73t60.5 56.5t82 23q45 0 73 -28t33 -69h2l23 84h25l-63 -222q-6 -21 -6 -38q0 -23 12 -35.5t37 -12.5q31 0 60 16.5t51 46.5t35 71t13 90q0 47 -17 93t-52.5 82
t-89.5 58.5t-127 22.5q-75 0 -139.5 -26t-111 -72t-73 -109t-26.5 -136q0 -70 23.5 -128.5t66.5 -100.5t103.5 -65t134.5 -23q66 0 123.5 19.5t102.5 54.5l-1 -30q-47 -32 -104 -50t-122 -18q-78 0 -142.5 25.5t-111 70.5t-72 107t-25.5 136q0 79 28 146.5t78.5 117
t119 77.5t149.5 28q79 0 137 -25t96.5 -65t57 -90.5t18.5 -102.5t-15.5 -96.5t-41 -77.5t-59 -51.5t-69.5 -18.5q-70 0 -70 65zM326 178q35 0 65.5 17.5t53.5 45t36 61t13 65.5q0 22 -6 41.5t-17 34.5t-28.5 23.5t-39.5 8.5q-40 0 -71 -21t-52 -52t-31.5 -66.5t-10.5 -63.5
q0 -42 20.5 -68t67.5 -26z" />
    <glyph glyph-name="A" unicode="A" horiz-adv-x="663" 
d="M583 0v239h-505v-239h-27v391q0 63 18.5 114t53.5 87t87 55.5t120 19.5t120.5 -19.5t88 -55.5t54 -87t18.5 -114v-391h-28zM583 391q0 57 -16.5 103.5t-48.5 79t-79.5 50.5t-108.5 18t-108 -18t-79 -50.5t-48.5 -79t-16.5 -103.5v-127h505v127z" />
    <glyph glyph-name="B" unicode="B" horiz-adv-x="621" 
d="M67 0v654h319q86 0 132.5 -45.5t46.5 -117.5q0 -55 -28 -95t-77 -57v-2q63 -13 99 -58t36 -109q0 -37 -12.5 -68.5t-35.5 -54t-57.5 -35t-77.5 -12.5h-345zM95 322v-297h316q79 0 117.5 41.5t38.5 106.5q0 32 -10.5 59.5t-30.5 47.5t-48 31t-62 11h-321zM95 629v-282h295
q68 0 107.5 39t39.5 102q0 62 -37.5 101.5t-114.5 39.5h-290z" />
    <glyph glyph-name="C" unicode="C" horiz-adv-x="751" 
d="M680 449q-17 43 -45.5 79t-67 61t-85.5 39t-100 14q-71 0 -129.5 -24t-101 -66t-66 -99.5t-23.5 -125.5t23.5 -125.5t66 -99.5t101 -66t129.5 -24q53 0 100 14t85.5 39t67 60.5t45.5 79.5h30q-18 -49 -49 -89.5t-73.5 -69t-94.5 -44t-111 -15.5q-77 0 -140.5 25.5
t-110 71t-72 107.5t-25.5 136q0 73 25.5 135.5t72 108t110 71t140.5 25.5q59 0 111 -15.5t94.5 -44t73.5 -69t49 -89.5h-30z" />
    <glyph glyph-name="D" unicode="D" horiz-adv-x="682" 
d="M67 0v654h235q84 0 149 -23.5t108.5 -66.5t66 -103.5t22.5 -133.5q0 -74 -22.5 -134t-66 -103t-108.5 -66.5t-149 -23.5h-235zM302 25q79 0 138.5 21.5t99.5 61.5t60 95.5t20 123.5t-20 123.5t-60 95.5t-99.5 61.5t-138.5 21.5h-207v-604h207z" />
    <glyph glyph-name="E" unicode="E" horiz-adv-x="591" 
d="M67 0v654h478v-25h-450v-284h392v-25h-392v-295h450v-25h-478z" />
    <glyph glyph-name="F" unicode="F" horiz-adv-x="566" 
d="M67 0v654h470v-25h-442v-284h384v-25h-384v-320h-28z" />
    <glyph glyph-name="G" unicode="G" horiz-adv-x="757" 
d="M680 449q-17 43 -45.5 79t-67 61t-85.5 39t-100 14q-71 0 -129.5 -24t-101 -66t-66 -99.5t-23.5 -125.5t23.5 -125.5t66 -99.5t101 -66t129.5 -24q65 0 120 19.5t97 55t68.5 84.5t34.5 108v2h-361v25h388v-10q-5 -68 -33 -124.5t-73.5 -97.5t-107 -64t-133.5 -23
q-77 0 -140.5 25.5t-110 71t-72 107.5t-25.5 136q0 73 25.5 135.5t72 108t110 71t140.5 25.5q59 0 111 -15.5t94.5 -44t73.5 -69t49 -89.5h-30z" />
    <glyph glyph-name="H" unicode="H" horiz-adv-x="702" 
d="M607 0v320h-512v-320h-28v654h28v-309h512v309h28v-654h-28z" />
    <glyph glyph-name="I" unicode="I" horiz-adv-x="170" 
d="M71 0v654h28v-654h-28z" />
    <glyph glyph-name="J" unicode="J" horiz-adv-x="573" 
d="M493 654h28v-426q0 -55 -16 -99.5t-47 -76t-77 -48.5t-105 -17q-117 0 -179.5 65t-62.5 176v9h27v-9q0 -49 14 -89t41 -68t67 -43.5t93 -15.5q106 0 161.5 58t55.5 158v426z" />
    <glyph glyph-name="K" unicode="K" horiz-adv-x="540" 
d="M67 0v654h28v-315h2l367 315h41l-378 -323l388 -331h-42l-376 322h-2v-322h-28z" />
    <glyph glyph-name="L" unicode="L" horiz-adv-x="559" 
d="M67 0v654h28v-629h438v-25h-466z" />
    <glyph glyph-name="M" unicode="M" horiz-adv-x="926" 
d="M80 0h-28v443q0 55 16 96.5t44.5 70t67.5 43t84 14.5q75 0 127 -38.5t71 -109.5h2q18 71 70.5 109.5t127.5 38.5q45 0 83.5 -14.5t67 -43t45 -70t16.5 -96.5v-443h-28v443q0 48 -14 85.5t-39 62.5t-58.5 38t-73.5 13t-74 -13.5t-58.5 -39t-38 -62.5t-13.5 -84v-443h-28
v443q0 47 -13.5 84t-38 62.5t-58.5 39t-74 13.5t-74 -13t-58.5 -38t-38.5 -62.5t-14 -85.5v-443z" />
    <glyph glyph-name="N" unicode="N" horiz-adv-x="648" 
d="M568 0v400q0 55 -16 100t-47 76.5t-76.5 48.5t-104.5 17q-119 0 -181.5 -65.5t-62.5 -176.5v-400h-28v400q0 61 18 110.5t52.5 84t85 53.5t116.5 19t116.5 -19t85 -53.5t52.5 -84t18 -110.5v-400h-28z" />
    <glyph glyph-name="O" unicode="O" horiz-adv-x="764" 
d="M730 327q0 -74 -25.5 -136t-72 -107.5t-110.5 -71t-140 -25.5q-77 0 -140.5 25.5t-110 71t-72 107.5t-25.5 136q0 73 25.5 135.5t72 108t110 71t140.5 25.5q76 0 140 -25.5t110.5 -71t72 -108t25.5 -135.5zM382 12q70 0 129 24t101.5 66t66 99.5t23.5 125.5t-23.5 125.5
t-66 99.5t-101.5 66t-129 24q-71 0 -129.5 -24t-101 -66t-66 -99.5t-23.5 -125.5t23.5 -125.5t66 -99.5t101 -66t129.5 -24z" />
    <glyph glyph-name="P" unicode="P" horiz-adv-x="597" 
d="M67 0v654h296q55 0 95.5 -15t66.5 -41t38.5 -62.5t12.5 -78.5t-12.5 -78.5t-39 -63t-66.5 -41.5t-95 -15h-268v-259h-28zM363 284q50 0 85.5 13t57.5 36.5t32 55t10 68.5t-10 68.5t-32 54.5t-57.5 36t-85.5 13h-268v-345h268z" />
    <glyph glyph-name="Q" unicode="Q" horiz-adv-x="764" 
d="M730 327q0 -90 -37 -161.5t-102 -116.5l134 -152h-35l-119 139q-40 -23 -87.5 -36t-101.5 -13q-77 0 -140.5 25.5t-110 71t-72 107.5t-25.5 136q0 73 25.5 135.5t72 108t110 71t140.5 25.5q76 0 140 -25.5t110.5 -71t72 -108t25.5 -135.5zM382 12q97 0 171 43v1l-140 159
h35l125 -146q60 42 94.5 108.5t34.5 149.5q0 68 -23.5 125.5t-66 99.5t-101.5 66t-129 24q-71 0 -129.5 -24t-101 -66t-66 -99.5t-23.5 -125.5t23.5 -125.5t66 -99.5t101 -66t129.5 -24z" />
    <glyph glyph-name="R" unicode="R" horiz-adv-x="633" 
d="M564 0l-211 269h-258v-269h-28v654h301q54 0 93.5 -14.5t65 -40t37.5 -61t12 -76.5q0 -39 -11 -73t-34 -59.5t-58.5 -41.5t-83.5 -19v-2l211 -267h-36zM368 294q49 0 83.5 13t56 35.5t31 53t9.5 66.5t-10 66.5t-31.5 53t-55.5 35t-83 12.5h-273v-335h273z" />
    <glyph glyph-name="S" unicode="S" horiz-adv-x="544" 
d="M462 486q-2 75 -54.5 115.5t-136.5 40.5q-43 0 -78 -10.5t-60 -31.5t-39 -51t-14 -69q0 -42 18.5 -67t48 -39.5t68 -21t78 -12t78 -13.5t68 -25t48 -46t18.5 -77q0 -44 -17 -79.5t-47.5 -60.5t-74 -38.5t-96.5 -13.5t-95.5 13t-73.5 38t-48 60.5t-18 80.5h28
q2 -80 58.5 -123.5t148.5 -43.5q47 0 85 11.5t65 33t42 52.5t15 70q0 42 -18.5 67t-48 39.5t-68 21t-78 12t-78 13.5t-68 25t-48 46t-18.5 77q0 42 15.5 76.5t44.5 59t69 38t90 13.5q49 0 89 -13t68.5 -36.5t44.5 -57t17 -74.5h-28z" />
    <glyph glyph-name="T" unicode="T" horiz-adv-x="569" 
d="M270 0v629h-243v25h515v-25h-244v-629h-28z" />
    <glyph glyph-name="U" unicode="U" horiz-adv-x="644" 
d="M566 654h27v-400q0 -61 -17.5 -110.5t-52 -84t-84.5 -53.5t-115 -19q-66 0 -116.5 19t-85 53.5t-52.5 84t-18 110.5v400h28v-400q0 -111 62.5 -176.5t181.5 -65.5q58 0 103.5 17.5t76 49t46.5 76t16 99.5v400z" />
    <glyph glyph-name="V" unicode="V" horiz-adv-x="643" 
d="M306 0l-277 654h31l261 -620h2l261 620h30l-277 -654h-31z" />
    <glyph glyph-name="W" unicode="W" horiz-adv-x="926" 
d="M846 654h28v-443q0 -55 -16.5 -96.5t-45 -70t-67 -43t-83.5 -14.5q-75 0 -127 38.5t-71 109.5h-2q-18 -71 -70.5 -109.5t-127.5 -38.5q-45 0 -84 14.5t-67.5 43t-44.5 70t-16 96.5v443h28v-443q0 -48 14 -85.5t38.5 -62.5t58.5 -38t74 -13t74 13.5t58.5 39t38 62.5
t13.5 84v443h28v-443q0 -47 13.5 -84t38 -62.5t58.5 -39t74 -13.5t73.5 13t58.5 38t39 62.5t14 85.5v443z" />
    <glyph glyph-name="X" unicode="X" horiz-adv-x="618" 
d="M27 0l263 333l-253 321h35l236 -301h2l237 301h34l-254 -320l264 -334h-36l-245 313h-2l-246 -313h-35z" />
    <glyph glyph-name="Y" unicode="Y" horiz-adv-x="647" 
d="M310 0v294l-284 360h36l261 -332h2l261 332h35l-283 -359v-295h-28z" />
    <glyph glyph-name="Z" unicode="Z" horiz-adv-x="595" 
d="M82 26v-1h465v-25h-504v21l455 606v2h-440v25h479v-21z" />
    <glyph glyph-name="bracketleft" unicode="[" horiz-adv-x="355" 
d="M87 -197v886h236v-23h-210v-840h210v-23h-236z" />
    <glyph glyph-name="backslash" unicode="\" horiz-adv-x="426" 
d="M395 -100l-368 754h25l368 -754h-25z" />
    <glyph glyph-name="bracketright" unicode="]" horiz-adv-x="355" 
d="M32 -197v23h210v840h-210v23h236v-886h-236z" />
    <glyph glyph-name="asciicircum" unicode="^" horiz-adv-x="562" 
d="M29 230l238 424h18l248 -424h-27l-229 393h-2l-219 -393h-27z" />
    <glyph glyph-name="underscore" unicode="_" horiz-adv-x="500" 
d="M0 -117v23h500v-23h-500z" />
    <glyph glyph-name="grave" unicode="`" horiz-adv-x="320" 
d="M198 576l-104 144h32l99 -144h-27z" />
    <glyph glyph-name="a" unicode="a" horiz-adv-x="609" 
d="M560 0h-25v135h-2q-29 -68 -91.5 -108t-147.5 -40q-58 0 -106.5 19.5t-84 54t-55 82.5t-19.5 104t19.5 104t55 82.5t84 54t107.5 19.5q58 0 107 -19.5t84 -54t54.5 -83t19.5 -105.5v-245zM295 11q54 0 98 18t75.5 49.5t48.5 74.5t17 94t-17 94t-48.5 74.5t-75.5 49.5
t-98 18t-98 -18t-75.5 -49.5t-48.5 -74.5t-17 -94t17 -94t48.5 -74.5t75.5 -49.5t98 -18z" />
    <glyph glyph-name="b" unicode="b" horiz-adv-x="609" 
d="M314 -13q-59 0 -107.5 19.5t-83.5 54t-54.5 82.5t-19.5 106v461h26v-347h2q29 66 91 105t147 39q58 0 106.5 -19.5t84 -54t55 -82.5t19.5 -104t-19.5 -104t-55 -82.5t-84.5 -54t-107 -19.5zM314 11q54 0 98 18t75.5 49.5t48.5 74.5t17 94t-17 94t-48.5 74.5t-75.5 49.5
t-98 18t-98 -18t-75.5 -49.5t-48.5 -74.5t-17 -94t17 -94t48.5 -74.5t75.5 -49.5t98 -18z" />
    <glyph glyph-name="c" unicode="c" horiz-adv-x="580" 
d="M520 334q-24 68 -83 108.5t-142 40.5q-54 0 -98 -18t-75.5 -49.5t-48.5 -74.5t-17 -94t17 -94t48.5 -74.5t75.5 -49.5t98 -18q83 0 142 40.5t83 108.5h27q-12 -39 -35.5 -71t-56 -54.5t-73.5 -35t-87 -12.5q-59 0 -107.5 19.5t-84 54t-55 82.5t-19.5 104t19.5 104
t55 82.5t84 54t107.5 19.5q46 0 87 -12.5t73.5 -35t56 -54.5t35.5 -71h-27z" />
    <glyph glyph-name="d" unicode="d" horiz-adv-x="609" 
d="M295 -13q-59 0 -107.5 19.5t-84 54t-55 82.5t-19.5 104t19.5 104t55 82.5t84 54t106.5 19.5q85 0 147 -39t91 -105h2v347h26v-461q0 -58 -19.5 -106t-54.5 -82.5t-84 -54t-107 -19.5zM295 11q54 0 98 18t75.5 49.5t48.5 74.5t17 94t-17 94t-48.5 74.5t-75.5 49.5t-98 18
t-98 -18t-75.5 -49.5t-48.5 -74.5t-17 -94t17 -94t48.5 -74.5t75.5 -49.5t98 -18z" />
    <glyph glyph-name="e" unicode="e" horiz-adv-x="589" 
d="M56 245q0 -50 17.5 -93t49 -74.5t75 -49t97.5 -17.5q76 0 132 34.5t84 93.5h28q-29 -69 -92.5 -110.5t-151.5 -41.5q-59 0 -107.5 19.5t-84 54t-55 82.5t-19.5 104t19.5 104t55 82.5t84 54t107.5 19.5q58 0 107 -19.5t84 -54t54.5 -82.5t19.5 -104v-2h-504zM295 483
q-51 0 -93 -16t-73.5 -44.5t-50 -68t-22.5 -85.5h477q-4 46 -22.5 85.5t-49.5 68t-73 44.5t-93 16z" />
    <glyph glyph-name="f" unicode="f" horiz-adv-x="468" 
d="M65 0v521q0 50 14.5 87.5t41 63t63.5 38.5t82 13t81.5 -13t63 -38.5t41 -63t14.5 -87.5v-4h-25v4q0 89 -48 133.5t-127 44.5t-127 -44.5t-48 -133.5v-96h319v-23h-319v-402h-26z" />
    <glyph glyph-name="g" unicode="g" horiz-adv-x="609" 
d="M534 131h-2q-29 -66 -91 -105t-147 -39q-58 0 -106.5 19.5t-84 54t-55 82.5t-19.5 104t19.5 104t55 82.5t84 54t107.5 19.5q58 0 107 -19.5t84 -54t54.5 -82.5t19.5 -106v-203q0 -72 -20 -122.5t-55 -82.5t-83 -46.5t-104 -14.5q-87 0 -152 36t-93 115h27q26 -67 85 -97
t134 -30q50 0 93 13.5t74.5 42.5t49.5 74.5t18 109.5v91zM534 247q0 51 -17 94t-48.5 74.5t-75.5 49.5t-98 18t-98 -18t-75.5 -49.5t-48.5 -74.5t-17 -94t17 -94t48.5 -74.5t75.5 -49.5t98 -18t98 18t75.5 49.5t48.5 74.5t17 94z" />
    <glyph glyph-name="h" unicode="h" horiz-adv-x="602" 
d="M65 0v710h26v-331h2q28 61 83.5 94.5t133.5 33.5q54 0 99 -16t77 -47t49.5 -77.5t17.5 -107.5v-259h-26v259q0 54 -15.5 95.5t-44 70t-69 43.5t-89.5 15t-89.5 -15t-69 -43.5t-44 -70.5t-15.5 -95v-259h-26z" />
    <glyph glyph-name="i" unicode="i" horiz-adv-x="164" 
d="M82 596q-11 0 -20 9t-9 20t9 20t20 9t20 -9t9 -20t-9 -20t-20 -9zM69 0v494h26v-494h-26z" />
    <glyph glyph-name="j" unicode="j" horiz-adv-x="164" 
d="M82 596q-11 0 -20 9t-9 20t9 20t20 9t20 -9t9 -20t-9 -20t-20 -9zM-61 -218v23h5q69 0 97 33t28 111v545h26v-545q0 -87 -35 -127t-116 -40h-5z" />
    <glyph glyph-name="k" unicode="k" horiz-adv-x="488" 
d="M65 0v710h26v-444h2l320 228h41l-332 -237v-2l343 -255h-42l-330 246h-2v-246h-26z" />
    <glyph glyph-name="l" unicode="l" horiz-adv-x="164" 
d="M69 0v710h26v-710h-26z" />
    <glyph glyph-name="m" unicode="m" horiz-adv-x="854" 
d="M414 0v295q0 45 -13 80t-35.5 59t-54 36.5t-67.5 12.5q-37 0 -68 -12t-53.5 -35.5t-35 -59t-12.5 -81.5v-295h-26v295q0 53 14.5 92.5t40.5 66t61.5 40t77.5 13.5q66 0 115 -34t68 -101h2q19 67 68 101t115 34q42 0 77.5 -13.5t61.5 -40t40.5 -66t14.5 -92.5v-295h-26
v295q0 46 -12.5 81.5t-35 59t-53.5 35.5t-68 12q-36 0 -67.5 -12.5t-54 -36.5t-35.5 -59t-13 -80v-295h-26z" />
    <glyph glyph-name="n" unicode="n" horiz-adv-x="586" 
d="M511 0v259q0 54 -15.5 95.5t-44 70t-69 43.5t-89.5 15q-50 0 -90 -15t-68.5 -43.5t-44 -70t-15.5 -95.5v-259h-26v259q0 61 17.5 107.5t49.5 77.5t77 47t100 16t100 -16t77 -47t49.5 -77.5t17.5 -107.5v-259h-26z" />
    <glyph glyph-name="o" unicode="o" horiz-adv-x="590" 
d="M561 247q0 -56 -19.5 -104t-55 -82.5t-84.5 -54t-107 -19.5q-59 0 -107.5 19.5t-84 54t-55 82.5t-19.5 104t19.5 104t55 82.5t84 54t107.5 19.5q58 0 107 -19.5t84.5 -54t55 -82.5t19.5 -104zM295 11q54 0 98 18t75.5 49.5t48.5 74.5t17 94t-17 94t-48.5 74.5t-75.5 49.5
t-98 18t-98 -18t-75.5 -49.5t-48.5 -74.5t-17 -94t17 -94t48.5 -74.5t75.5 -49.5t98 -18z" />
    <glyph glyph-name="p" unicode="p" horiz-adv-x="609" 
d="M49 -211v456q0 58 19.5 106t54.5 82.5t83.5 54t107.5 19.5q58 0 107 -19.5t84.5 -54t55 -82.5t19.5 -104t-19.5 -104t-55 -82.5t-84 -54t-106.5 -19.5q-85 0 -147 39t-91 105h-2v-342h-26zM314 11q54 0 98 18t75.5 49.5t48.5 74.5t17 94t-17 94t-48.5 74.5t-75.5 49.5
t-98 18t-98 -18t-75.5 -49.5t-48.5 -74.5t-17 -94t17 -94t48.5 -74.5t75.5 -49.5t98 -18z" />
    <glyph glyph-name="q" unicode="q" horiz-adv-x="609" 
d="M534 -211v342h-2q-29 -66 -91 -105t-147 -39q-58 0 -106.5 19.5t-84 54t-55 82.5t-19.5 104t19.5 104t55 82.5t84 54t107.5 19.5q58 0 107 -19.5t84 -54t54.5 -82.5t19.5 -106v-456h-26zM295 11q54 0 98 18t75.5 49.5t48.5 74.5t17 94t-17 94t-48.5 74.5t-75.5 49.5
t-98 18t-98 -18t-75.5 -49.5t-48.5 -74.5t-17 -94t17 -94t48.5 -74.5t75.5 -49.5t98 -18z" />
    <glyph glyph-name="r" unicode="r" horiz-adv-x="472" 
d="M425 295v9q0 91 -48 135t-127 44t-127 -44t-48 -135v-304h-26v304q0 51 14.5 89t41 63.5t63.5 38t82 12.5t81.5 -12.5t63 -38t41 -63.5t14.5 -89v-9h-25z" />
    <glyph glyph-name="s" unicode="s" horiz-adv-x="462" 
d="M387 365q-2 54 -43.5 86t-113.5 32t-114 -33t-42 -90q0 -42 26 -61t65.5 -27t85.5 -11.5t85.5 -14.5t65.5 -35t26 -73q0 -33 -14 -60.5t-39.5 -47.5t-62 -31.5t-81.5 -11.5t-81 11t-61.5 31t-39.5 46.5t-15 58.5h26q1 -27 13.5 -50t35 -39.5t53.5 -25.5t69 -9
q79 0 124.5 35.5t45.5 92.5q0 42 -26 61t-65.5 27t-85.5 11.5t-85.5 14.5t-65.5 35t-26 73q0 65 49 106t134 41t133 -40.5t50 -101.5h-26z" />
    <glyph glyph-name="t" unicode="t" horiz-adv-x="462" 
d="M422 176q0 -94 -51 -141.5t-135 -47.5q-42 0 -76 12t-59 35.5t-38.5 59t-13.5 82.5v499h26v-181h320v-23h-320v-295q0 -82 43.5 -123.5t117.5 -41.5t118 40.5t44 124.5v8h24v-8z" />
    <glyph glyph-name="u" unicode="u" horiz-adv-x="586" 
d="M511 494h26v-259q0 -61 -17.5 -107.5t-49.5 -77.5t-77 -47t-100 -16t-100 16t-77 47t-49.5 77.5t-17.5 107.5v259h26v-259q0 -54 15.5 -95.5t44 -70t68.5 -43.5t90 -15q49 0 89.5 15t69 43.5t44 70t15.5 95.5v259z" />
    <glyph glyph-name="v" unicode="v" horiz-adv-x="567" 
d="M269 0l-244 494h29l229 -465h2l229 465h28l-244 -494h-29z" />
    <glyph glyph-name="w" unicode="w" horiz-adv-x="854" 
d="M440 494v-295q0 -45 13 -80t35.5 -59t54 -36.5t67.5 -12.5q37 0 68 12t53.5 35.5t35 58.5t12.5 82v295h26v-295q0 -53 -14.5 -92.5t-40.5 -66t-61.5 -40t-77.5 -13.5q-66 0 -115 34t-68 101h-2q-19 -67 -68 -101t-115 -34q-42 0 -77.5 13.5t-61.5 40t-40.5 66t-14.5 92.5
v295h26v-295q0 -47 12.5 -82t35 -58.5t53.5 -35.5t68 -12q36 0 67.5 12.5t54 36.5t35.5 59t13 80v295h26z" />
    <glyph glyph-name="x" unicode="x" horiz-adv-x="545" 
d="M23 0l232 251l-224 243h35l206 -225h2l206 225h34l-224 -243l232 -251h-35l-214 233h-2l-214 -233h-34z" />
    <glyph glyph-name="y" unicode="y" horiz-adv-x="602" 
d="M511 115h-2q-28 -61 -83.5 -94.5t-133.5 -33.5q-54 0 -99 16t-77 47t-49.5 77.5t-17.5 107.5v259h26v-259q0 -54 15.5 -95.5t44 -70t68.5 -43.5t90 -15q49 0 89.5 15t69 43.5t44 70.5t15.5 95v259h26v-476q0 -65 -19 -110.5t-52.5 -75t-79 -43t-97.5 -13.5q-83 0 -146 38
t-89 113h27q24 -63 79 -95t129 -32q47 0 87.5 12t70.5 38.5t47 67.5t17 100v97z" />
    <glyph glyph-name="z" unicode="z" horiz-adv-x="534" 
d="M37 0v20l406 448v2h-391v24h430v-20l-406 -448v-2h416v-24h-455z" />
    <glyph glyph-name="braceleft" unicode="{" horiz-adv-x="355" 
d="M295 -197q-84 0 -128.5 40.5t-44.5 127.5v207q0 56 -54 56h-22v24h22q54 0 54 56v207q0 87 44.5 127.5t128.5 40.5h43v-22h-43q-72 0 -110 -35t-38 -110v-204q0 -58 -40 -71v-2q40 -13 40 -71v-204q0 -75 38 -110t110 -35h43v-22h-43z" />
    <glyph glyph-name="bar" unicode="|" horiz-adv-x="346" 
d="M161 -211v1000h23v-1000h-23z" />
    <glyph glyph-name="braceright" unicode="}" horiz-adv-x="355" 
d="M17 -197v22h43q72 0 110 35t38 110v204q0 58 40 71v2q-40 13 -40 71v204q0 75 -38 110t-110 35h-43v22h43q84 0 128.5 -40.5t44.5 -127.5v-207q0 -56 54 -56h22v-24h-22q-54 0 -54 -56v-207q0 -87 -44.5 -127.5t-128.5 -40.5h-43z" />
    <glyph glyph-name="asciitilde" unicode="~" horiz-adv-x="562" 
d="M516 335q-5 -75 -39 -111t-82 -36q-38 0 -65.5 19t-52 42.5t-50.5 42.5t-60 19q-19 0 -36 -6.5t-30.5 -21.5t-22 -38.5t-9.5 -56.5h-23q4 75 38.5 111t82.5 36q26 0 46 -9t38 -23t34 -29.5t33 -29.5t35.5 -23t41.5 -9q38 0 66 28t32 95h23z" />
    <glyph glyph-name="uni00A0" unicode="&#xa0;" horiz-adv-x="266" 
 />
    <glyph glyph-name="exclamdown" unicode="&#xa1;" horiz-adv-x="242" 
d="M121 456q11 0 20 -9t9 -20t-9 -20t-20 -9t-20 9t-9 20t9 20t20 9zM131 296l5 -507h-30l5 507h20z" />
    <glyph glyph-name="cent" unicode="&#xa2;" 
d="M257 668h25v-112q77 -4 131.5 -44.5t75.5 -106.5h-26q-20 55 -67.5 89t-113.5 38v-409q66 4 113.5 38.5t67.5 89.5h26q-21 -66 -75.5 -107t-131.5 -45v-113h-25v113q-50 1 -91.5 19t-71 48.5t-46 72t-16.5 89.5t16.5 89.5t46 71.5t71 48t91.5 20v111zM58 328
q0 -43 14.5 -80t40.5 -64t63 -43.5t81 -17.5v410q-44 -2 -81 -18t-63 -43.5t-40.5 -64t-14.5 -79.5z" />
    <glyph glyph-name="sterling" unicode="&#xa3;" 
d="M168 244q5 -17 8 -35t3 -39q0 -42 -18 -82t-56 -62v-2h351v-24h-406v20q50 17 77 57t27 93q0 21 -3.5 39t-8.5 35h-92v21l83 2v2q-11 25 -24 48t-24.5 47t-19.5 52t-8 64q0 40 15 74t42 59t65 39.5t85 14.5q48 0 86.5 -16t65.5 -45t41 -69.5t14 -89.5v-9h-24v9
q0 44 -13 80t-36.5 62t-57.5 40t-76 14q-41 0 -74.5 -12t-57 -33.5t-36.5 -51.5t-13 -66q0 -34 8 -61.5t20 -52.5t25 -48.5t24 -49.5h250v-24h-242z" />
    <glyph glyph-name="currency" unicode="&#xa4;" 
d="M379 193q-48 -42 -121 -42q-70 0 -118 39l-96 -95l-16 15l95 96q-45 48 -45 122q0 36 11.5 66.5t32.5 53.5l-94 96l16 15l95 -95q23 19 53 29.5t66 10.5t67 -11.5t54 -31.5l98 98l16 -15l-98 -98q20 -23 31.5 -53t11.5 -65q0 -36 -11.5 -66.5t-32.5 -53.5l99 -98l-16 -15
zM258 173q35 0 64 11.5t49.5 32.5t32 49.5t11.5 61.5t-11.5 61.5t-32 49.5t-49.5 32.5t-64 11.5t-63.5 -11.5t-49 -32.5t-32 -49.5t-11.5 -61.5t11.5 -61.5t32 -49.5t49 -32.5t63.5 -11.5z" />
    <glyph glyph-name="yen" unicode="&#xa5;" 
d="M274 149v-149h-26v149h-200v24h200v117h-200v24h199v2l-234 338h32l216 -315h2l215 315h31l-234 -338v-2h199v-24h-200v-117h200v-24h-200z" />
    <glyph glyph-name="brokenbar" unicode="&#xa6;" horiz-adv-x="346" 
d="M161 -211v400h23v-400h-23zM161 389v400h23v-400h-23z" />
    <glyph glyph-name="section" unicode="&#xa7;" horiz-adv-x="556" 
d="M365 85q24 -6 44.5 -15t35.5 -23t23.5 -33.5t8.5 -47.5q0 -38 -15 -67.5t-42 -50.5t-64 -32t-80 -11q-44 0 -80 11t-62.5 31t-42 49.5t-16.5 65.5h26q1 -32 14.5 -57t36.5 -42t54.5 -26t69.5 -9q39 0 71 9t55 27t36 43.5t13 58.5q0 34 -17 54.5t-44.5 32t-62.5 17t-72 11
t-72 14t-62.5 25.5t-44.5 45t-17 73q0 30 10.5 54t28.5 42t42 30.5t51 19.5v2q-24 6 -44.5 14.5t-35.5 23t-23.5 34.5t-8.5 48q0 37 15 67t42 51t63.5 32t80.5 11q43 0 79.5 -11t63 -31t42 -49.5t16.5 -65.5h-26q-1 32 -14.5 57t-36.5 42t-54.5 26t-69.5 9q-39 0 -71 -9
t-55 -27t-36 -43.5t-13 -58.5q0 -35 17 -55t44.5 -31.5t62.5 -17t72 -11t72 -14t62.5 -25.5t44.5 -45t17 -73q0 -30 -10.5 -54.5t-28.5 -42.5t-42 -30.5t-51 -19.5v-2zM471 235q0 43 -20 68.5t-51.5 39t-71 20t-78.5 12.5q-30 -3 -60 -12.5t-53 -26.5t-37.5 -41.5
t-14.5 -57.5q0 -44 19.5 -69t51 -39t71 -20t79.5 -12q30 3 60 12t53 26t37.5 42t14.5 58z" />
    <glyph glyph-name="dieresis" unicode="&#xa8;" horiz-adv-x="320" 
d="M247 607q-11 0 -19.5 8.5t-8.5 19.5t8.5 19.5t19.5 8.5t19.5 -8.5t8.5 -19.5t-8.5 -19.5t-19.5 -8.5zM73 607q-11 0 -19.5 8.5t-8.5 19.5t8.5 19.5t19.5 8.5t19.5 -8.5t8.5 -19.5t-8.5 -19.5t-19.5 -8.5z" />
    <glyph glyph-name="copyright" unicode="&#xa9;" horiz-adv-x="764" 
d="M730 327q0 -74 -25.5 -136t-72 -107.5t-110.5 -71t-140 -25.5q-77 0 -140.5 25.5t-110 71t-72 107.5t-25.5 136q0 73 25.5 135.5t72 108t110 71t140.5 25.5q76 0 140 -25.5t110.5 -71t72 -108t25.5 -135.5zM529 392q-18 42 -57 67t-91 25q-35 0 -64.5 -12t-50.5 -33
t-32.5 -49.5t-11.5 -62.5t11.5 -62.5t32.5 -49.5t50.5 -33t64.5 -12q52 0 91 25t57 67h23q-19 -51 -63.5 -83t-107.5 -32q-40 0 -73.5 13.5t-58 37.5t-38 57t-13.5 72t13.5 72t38 57t58 37.5t73.5 13.5q63 0 107.5 -32t63.5 -83h-23zM706 327q0 69 -24 127t-66.5 100
t-102 66t-131.5 24t-131.5 -24t-102 -66t-66.5 -100t-24 -127t24 -127t66.5 -100t102 -66t131.5 -24t131.5 24t102 66t66.5 100t24 127z" />
    <glyph glyph-name="ordfeminine" unicode="&#xaa;" horiz-adv-x="428" 
d="M358 333v87h-2q-19 -44 -58.5 -69.5t-94.5 -25.5q-38 0 -70 13t-55 35.5t-36 54t-13 68.5t13 68.5t36 54t55.5 35.5t70.5 13t70 -13t55.5 -35.5t36.5 -54t13 -68.5v-163h-21zM39 211v23h340v-23h-340zM204 347q33 0 61 11t48 31t31 47.5t11 59.5t-11 59.5t-31 47.5
t-48 31t-61 11t-61 -11t-48 -31t-31 -47.5t-11 -59.5t11 -59.5t31 -47.5t48 -31t61 -11z" />
    <glyph glyph-name="guillemotleft" unicode="&#xab;" horiz-adv-x="504" 
d="M247 48l-185 199l185 199h34l-185 -199l185 -199h-34zM407 48l-185 199l185 199h34l-185 -199l185 -199h-34z" />
    <glyph glyph-name="logicalnot" unicode="&#xac;" horiz-adv-x="562" 
d="M488 63v218h-436v22h458v-240h-22z" />
    <glyph glyph-name="uni00AD" unicode="&#xad;" horiz-adv-x="346" 
d="M23 259v25h300v-25h-300z" />
    <glyph glyph-name="registered" unicode="&#xae;" horiz-adv-x="764" 
d="M730 327q0 -74 -25.5 -136t-72 -107.5t-110.5 -71t-140 -25.5q-77 0 -140.5 25.5t-110 71t-72 107.5t-25.5 136q0 73 25.5 135.5t72 108t110 71t140.5 25.5q76 0 140 -25.5t110.5 -71t72 -108t25.5 -135.5zM706 327q0 69 -24 127t-66.5 100t-102 66t-131.5 24t-131.5 -24
t-102 -66t-66.5 -100t-24 -127t24 -127t66.5 -100t102 -66t131.5 -24t131.5 24t102 66t66.5 100t24 127zM511 157l-110 130h-123v-130h-25v340h167q54 0 83.5 -28.5t29.5 -76.5q0 -44 -26.5 -72.5t-73.5 -32.5v-2l110 -128h-32zM278 474v-164h142q43 0 65.5 23t22.5 59
q0 37 -22.5 59.5t-65.5 22.5h-142z" />
    <glyph glyph-name="macron" unicode="&#xaf;" horiz-adv-x="320" 
d="M15 608v23h290v-23h-290z" />
    <glyph glyph-name="degree" unicode="&#xb0;" horiz-adv-x="299" 
d="M150 432q-24 0 -45.5 9.5t-37.5 25.5t-25.5 37.5t-9.5 45.5t9.5 45.5t25.5 37.5t37.5 25t45.5 9t45.5 -9t37.5 -25t25 -37.5t9 -45.5t-9 -45.5t-25 -37.5t-37.5 -25.5t-45.5 -9.5zM243 550q0 39 -27 66.5t-66 27.5q-20 0 -37 -7.5t-29.5 -20t-20 -30t-7.5 -36.5
q0 -20 7.5 -37t20 -30t29.5 -20.5t37 -7.5q19 0 36 7.5t30 20.5t20 30t7 37z" />
    <glyph glyph-name="plusminus" unicode="&#xb1;" horiz-adv-x="562" 
d="M52 15v22h218v214h-218v22h218v218h22v-218h218v-22h-218v-214h218v-22h-458z" />
    <glyph glyph-name="uni00B2" unicode="&#xb2;" horiz-adv-x="340" 
d="M41 242v20l170 150q29 26 47.5 54t18.5 63q0 49 -28 79.5t-77 30.5q-50 0 -78.5 -31.5t-28.5 -83.5v-6h-24v6q0 62 34.5 100t96.5 38q60 0 95 -38t35 -95q0 -42 -20 -71.5t-55 -61.5l-146 -129v-2h216v-23h-256z" />
    <glyph glyph-name="uni00B3" unicode="&#xb3;" horiz-adv-x="340" 
d="M124 451v21h51q44 0 69.5 20.5t25.5 62.5q0 34 -25.5 59t-75.5 25t-74 -25t-27 -60h-24q4 51 37.5 79.5t87.5 28.5q55 0 90.5 -28.5t35.5 -79.5q0 -35 -17 -57.5t-46 -33.5v-2q37 -11 58 -37.5t21 -68.5q0 -56 -40 -88.5t-102 -32.5q-61 0 -100.5 33t-40.5 89h24
q1 -41 30.5 -70t86.5 -29t86.5 29.5t29.5 69.5q0 45 -29 70t-81 25h-51z" />
    <glyph glyph-name="acute" unicode="&#xb4;" horiz-adv-x="320" 
d="M94 576l99 144h32l-104 -144h-27z" />
    <glyph glyph-name="mu" unicode="&#xb5;" horiz-adv-x="604" 
d="M66 -211v705h26v-259q0 -53 15.5 -95t44 -70.5t69 -43.5t89.5 -15t89.5 15t69 43.5t44 70t15.5 95.5v259h26v-259q0 -61 -17.5 -107.5t-49.5 -77.5t-77 -47t-99 -16q-78 0 -134 33.5t-83 94.5h-2v-326h-26z" />
    <glyph glyph-name="paragraph" unicode="&#xb6;" horiz-adv-x="596" 
d="M263 -172v385q-51 2 -92.5 19.5t-70 46.5t-44 68.5t-15.5 86.5q0 48 16.5 88t47 69.5t74 46t97.5 16.5h233v-826h-24v803h-198v-803h-24z" />
    <glyph glyph-name="periodcentered" unicode="&#xb7;" horiz-adv-x="226" 
d="M113 298q-11 0 -20 9t-9 20t9 20t20 9t20 -9t9 -20t-9 -20t-20 -9z" />
    <glyph glyph-name="cedilla" unicode="&#xb8;" horiz-adv-x="320" 
d="M113 -93l38 93h23l-30 -74v-2q8 4 15 5t17 1q34 0 57.5 -20t23.5 -53q0 -38 -26 -59.5t-71 -21.5q-40 0 -66.5 19t-31.5 51h22q5 -21 24.5 -34.5t51.5 -13.5q34 0 53.5 14.5t19.5 44.5q0 22 -15.5 36.5t-41.5 14.5q-16 0 -24.5 -2.5t-20.5 -8.5z" />
    <glyph glyph-name="uni00B9" unicode="&#xb9;" horiz-adv-x="340" 
d="M186 242v389h-108v23h133v-412h-25z" />
    <glyph glyph-name="ordmasculine" unicode="&#xba;" horiz-adv-x="408" 
d="M379 496q0 -37 -13 -68.5t-36.5 -54t-55.5 -35.5t-70 -13t-70.5 13t-55.5 35.5t-36 54t-13 68.5t13 68.5t36 54t55.5 35.5t70.5 13t70 -13t55.5 -35.5t36.5 -54t13 -68.5zM204 347q33 0 61 11t48 31t31 47.5t11 59.5t-11 59.5t-31 47.5t-48 31t-61 11t-61 -11t-48 -31
t-31 -47.5t-11 -59.5t11 -59.5t31 -47.5t48 -31t61 -11zM39 211v23h330v-23h-330z" />
    <glyph glyph-name="guillemotright" unicode="&#xbb;" horiz-adv-x="504" 
d="M63 48l185 199l-185 199h34l185 -199l-185 -199h-34zM223 48l185 199l-185 199h34l185 -199l-185 -199h-34z" />
    <glyph glyph-name="onequarter" unicode="&#xbc;" horiz-adv-x="824" 
d="M176 0l442 654h30l-442 -654h-30zM186 242v389h-108v23h133v-412h-25zM731 0v99h-228v20l228 293h25v-291h53v-22h-53v-99h-25zM729 374l-195 -251v-2h197v253h-2z" />
    <glyph glyph-name="onehalf" unicode="&#xbd;" horiz-adv-x="824" 
d="M176 0l442 654h30l-442 -654h-30zM186 242v389h-108v23h133v-412h-25zM525 0v20l170 150q29 26 47.5 54t18.5 63q0 49 -28 79.5t-77 30.5q-50 0 -78.5 -31.5t-28.5 -83.5v-6h-24v6q0 62 34.5 100t96.5 38q60 0 95 -38t35 -95q0 -42 -20 -71.5t-55 -61.5l-146 -129v-2h216
v-23h-256z" />
    <glyph glyph-name="threequarters" unicode="&#xbe;" horiz-adv-x="824" 
d="M226 0l442 654h30l-442 -654h-30zM731 0v99h-228v20l228 293h25v-291h53v-22h-53v-99h-25zM729 374l-195 -251v-2h197v253h-2zM124 451v21h51q44 0 69.5 20.5t25.5 62.5q0 34 -25.5 59t-75.5 25t-74 -25t-27 -60h-24q4 51 37.5 79.5t87.5 28.5q55 0 90.5 -28.5
t35.5 -79.5q0 -35 -17 -57.5t-46 -33.5v-2q37 -11 58 -37.5t21 -68.5q0 -56 -40 -88.5t-102 -32.5q-61 0 -100.5 33t-40.5 89h24q1 -41 30.5 -70t86.5 -29t86.5 29.5t29.5 69.5q0 45 -29 70t-81 25h-51z" />
    <glyph glyph-name="questiondown" unicode="&#xbf;" horiz-adv-x="474" 
d="M276 296v-20q0 -41 -16 -67t-40 -44.5t-52.5 -34.5t-52.5 -36.5t-40 -49.5t-16 -75q0 -40 13 -71.5t37 -53t56.5 -33t71.5 -11.5t72 11.5t57.5 33t38 53t13.5 71.5v9h24v-9q0 -44 -15.5 -80t-43 -61t-65 -38.5t-81.5 -13.5q-45 0 -82.5 13.5t-64.5 38t-42.5 60.5
t-15.5 81q0 50 16.5 82.5t41 54.5t53 37.5t53 33t41 40.5t16.5 59v20h23zM264 456q11 0 20 -9t9 -20t-9 -20t-20 -9t-20 9t-9 20t9 20t20 9z" />
    <glyph glyph-name="Agrave" unicode="&#xc0;" horiz-adv-x="663" 
d="M583 0v239h-505v-239h-27v391q0 63 18.5 114t53.5 87t87 55.5t120 19.5t120.5 -19.5t88 -55.5t54 -87t18.5 -114v-391h-28zM583 391q0 57 -16.5 103.5t-48.5 79t-79.5 50.5t-108.5 18t-108 -18t-79 -50.5t-48.5 -79t-16.5 -103.5v-127h505v127zM338 726l-104 144h32
l99 -144h-27z" />
    <glyph glyph-name="Aacute" unicode="&#xc1;" horiz-adv-x="663" 
d="M583 0v239h-505v-239h-27v391q0 63 18.5 114t53.5 87t87 55.5t120 19.5t120.5 -19.5t88 -55.5t54 -87t18.5 -114v-391h-28zM583 391q0 57 -16.5 103.5t-48.5 79t-79.5 50.5t-108.5 18t-108 -18t-79 -50.5t-48.5 -79t-16.5 -103.5v-127h505v127zM298 726l99 144h32
l-104 -144h-27z" />
    <glyph glyph-name="Acircumflex" unicode="&#xc2;" horiz-adv-x="663" 
d="M583 0v239h-505v-239h-27v391q0 63 18.5 114t53.5 87t87 55.5t120 19.5t120.5 -19.5t88 -55.5t54 -87t18.5 -114v-391h-28zM583 391q0 57 -16.5 103.5t-48.5 79t-79.5 50.5t-108.5 18t-108 -18t-79 -50.5t-48.5 -79t-16.5 -103.5v-127h505v127zM420 726l-87 119h-2
l-87 -119h-26l102 144h24l102 -144h-26z" />
    <glyph glyph-name="Atilde" unicode="&#xc3;" horiz-adv-x="663" 
d="M583 0v239h-505v-239h-27v391q0 63 18.5 114t53.5 87t87 55.5t120 19.5t120.5 -19.5t88 -55.5t54 -87t18.5 -114v-391h-28zM583 391q0 57 -16.5 103.5t-48.5 79t-79.5 50.5t-108.5 18t-108 -18t-79 -50.5t-48.5 -79t-16.5 -103.5v-127h505v127zM496 836
q-21 -104 -92 -104q-29 0 -46.5 12.5t-31.5 27.5t-29.5 27.5t-39.5 12.5q-29 0 -45.5 -21t-24.5 -61h-21q21 104 92 104q28 0 46 -12.5t32 -27.5t29.5 -27.5t39.5 -12.5q29 0 45.5 21t24.5 61h21z" />
    <glyph glyph-name="Adieresis" unicode="&#xc4;" horiz-adv-x="663" 
d="M583 0v239h-505v-239h-27v391q0 63 18.5 114t53.5 87t87 55.5t120 19.5t120.5 -19.5t88 -55.5t54 -87t18.5 -114v-391h-28zM583 391q0 57 -16.5 103.5t-48.5 79t-79.5 50.5t-108.5 18t-108 -18t-79 -50.5t-48.5 -79t-16.5 -103.5v-127h505v127zM418 757q-11 0 -19.5 8.5
t-8.5 19.5t8.5 19.5t19.5 8.5t19.5 -8.5t8.5 -19.5t-8.5 -19.5t-19.5 -8.5zM244 757q-11 0 -19.5 8.5t-8.5 19.5t8.5 19.5t19.5 8.5t19.5 -8.5t8.5 -19.5t-8.5 -19.5t-19.5 -8.5z" />
    <glyph glyph-name="Aring" unicode="&#xc5;" horiz-adv-x="663" 
d="M583 0v239h-505v-239h-27v391q0 63 18.5 114t53.5 87t87 55.5t120 19.5t120.5 -19.5t88 -55.5t54 -87t18.5 -114v-391h-28zM583 391q0 57 -16.5 103.5t-48.5 79t-79.5 50.5t-108.5 18t-108 -18t-79 -50.5t-48.5 -79t-16.5 -103.5v-127h505v127zM331 716q-38 0 -63.5 25.5
t-25.5 63.5t25.5 63.5t63.5 25.5t63.5 -25.5t25.5 -63.5t-25.5 -63.5t-63.5 -25.5zM395 805q0 28 -17.5 47t-46.5 19q-28 0 -46 -19t-18 -47t18 -47t46 -19q29 0 46.5 19t17.5 47z" />
    <glyph glyph-name="AE" unicode="&#xc6;" horiz-adv-x="1057" 
d="M533 0v239h-455v-239h-27v378q0 63 18.5 114t53.5 87t87 55.5t120 19.5h681v-25h-450v-284h392v-25h-392v-295h450v-25h-478zM533 629h-203q-61 0 -108 -18t-79 -50.5t-48.5 -79t-16.5 -103.5v-114h455v365z" />
    <glyph glyph-name="Ccedilla" unicode="&#xc7;" horiz-adv-x="751" 
d="M329 -93l32 79v2q-72 4 -132.5 30.5t-103.5 71.5t-67 105.5t-24 131.5q0 73 25.5 135.5t72 108t110 71t140.5 25.5q59 0 111 -15.5t94.5 -44t73.5 -69t49 -89.5h-30q-17 43 -45.5 79t-67 61t-85.5 39t-100 14q-71 0 -129.5 -24t-101 -66t-66 -99.5t-23.5 -125.5
t23.5 -125.5t66 -99.5t101 -66t129.5 -24q53 0 100 14t85.5 39t67 60.5t45.5 79.5h30q-18 -49 -49 -89t-73 -68.5t-93.5 -44.5t-110.5 -16l-24 -61v-2q8 4 15 5t17 1q34 0 57.5 -20t23.5 -53q0 -38 -26 -59.5t-71 -21.5q-40 0 -66.5 19t-31.5 51h22q5 -21 24.5 -34.5
t51.5 -13.5q34 0 53.5 14.5t19.5 44.5q0 22 -15.5 36.5t-41.5 14.5q-16 0 -24.5 -2.5t-20.5 -8.5z" />
    <glyph glyph-name="Egrave" unicode="&#xc8;" horiz-adv-x="591" 
d="M67 0v654h478v-25h-450v-284h392v-25h-392v-295h450v-25h-478zM317 726l-104 144h32l99 -144h-27z" />
    <glyph glyph-name="Eacute" unicode="&#xc9;" horiz-adv-x="591" 
d="M67 0v654h478v-25h-450v-284h392v-25h-392v-295h450v-25h-478zM277 726l99 144h32l-104 -144h-27z" />
    <glyph glyph-name="Ecircumflex" unicode="&#xca;" horiz-adv-x="591" 
d="M67 0v654h478v-25h-450v-284h392v-25h-392v-295h450v-25h-478zM399 726l-87 119h-2l-87 -119h-26l102 144h24l102 -144h-26z" />
    <glyph glyph-name="Edieresis" unicode="&#xcb;" horiz-adv-x="591" 
d="M67 0v654h478v-25h-450v-284h392v-25h-392v-295h450v-25h-478zM397 757q-11 0 -19.5 8.5t-8.5 19.5t8.5 19.5t19.5 8.5t19.5 -8.5t8.5 -19.5t-8.5 -19.5t-19.5 -8.5zM223 757q-11 0 -19.5 8.5t-8.5 19.5t8.5 19.5t19.5 8.5t19.5 -8.5t8.5 -19.5t-8.5 -19.5t-19.5 -8.5z
" />
    <glyph glyph-name="Igrave" unicode="&#xcc;" horiz-adv-x="170" 
d="M71 0v654h28v-654h-28zM92 726l-104 144h32l99 -144h-27z" />
    <glyph glyph-name="Iacute" unicode="&#xcd;" horiz-adv-x="170" 
d="M71 0v654h28v-654h-28zM52 726l99 144h32l-104 -144h-27z" />
    <glyph glyph-name="Icircumflex" unicode="&#xce;" horiz-adv-x="170" 
d="M71 0v654h28v-654h-28zM174 726l-87 119h-2l-87 -119h-26l102 144h24l102 -144h-26z" />
    <glyph glyph-name="Idieresis" unicode="&#xcf;" horiz-adv-x="170" 
d="M71 0v654h28v-654h-28zM172 757q-11 0 -19.5 8.5t-8.5 19.5t8.5 19.5t19.5 8.5t19.5 -8.5t8.5 -19.5t-8.5 -19.5t-19.5 -8.5zM-2 757q-11 0 -19.5 8.5t-8.5 19.5t8.5 19.5t19.5 8.5t19.5 -8.5t8.5 -19.5t-8.5 -19.5t-19.5 -8.5z" />
    <glyph glyph-name="Eth" unicode="&#xd0;" horiz-adv-x="690" 
d="M75 0v320h-67v25h67v309h235q84 0 149 -23.5t108.5 -66.5t66 -103.5t22.5 -133.5q0 -74 -22.5 -134t-66 -103t-108.5 -66.5t-149 -23.5h-235zM310 25q79 0 138.5 21.5t99.5 61.5t60 95.5t20 123.5t-20 123.5t-60 95.5t-99.5 61.5t-138.5 21.5h-207v-284h255v-25h-255
v-295h207z" />
    <glyph glyph-name="Ntilde" unicode="&#xd1;" horiz-adv-x="648" 
d="M568 0v400q0 55 -16 100t-47 76.5t-76.5 48.5t-104.5 17q-119 0 -181.5 -65.5t-62.5 -176.5v-400h-28v400q0 61 18 110.5t52.5 84t85 53.5t116.5 19t116.5 -19t85 -53.5t52.5 -84t18 -110.5v-400h-28zM489 836q-21 -104 -92 -104q-29 0 -46.5 12.5t-31.5 27.5t-29.5 27.5
t-39.5 12.5q-29 0 -45.5 -21t-24.5 -61h-21q21 104 92 104q28 0 46 -12.5t32 -27.5t29.5 -27.5t39.5 -12.5q29 0 45.5 21t24.5 61h21z" />
    <glyph glyph-name="Ograve" unicode="&#xd2;" horiz-adv-x="764" 
d="M730 327q0 -74 -25.5 -136t-72 -107.5t-110.5 -71t-140 -25.5q-77 0 -140.5 25.5t-110 71t-72 107.5t-25.5 136q0 73 25.5 135.5t72 108t110 71t140.5 25.5q76 0 140 -25.5t110.5 -71t72 -108t25.5 -135.5zM382 12q70 0 129 24t101.5 66t66 99.5t23.5 125.5t-23.5 125.5
t-66 99.5t-101.5 66t-129 24q-71 0 -129.5 -24t-101 -66t-66 -99.5t-23.5 -125.5t23.5 -125.5t66 -99.5t101 -66t129.5 -24zM388 726l-104 144h32l99 -144h-27z" />
    <glyph glyph-name="Oacute" unicode="&#xd3;" horiz-adv-x="764" 
d="M730 327q0 -74 -25.5 -136t-72 -107.5t-110.5 -71t-140 -25.5q-77 0 -140.5 25.5t-110 71t-72 107.5t-25.5 136q0 73 25.5 135.5t72 108t110 71t140.5 25.5q76 0 140 -25.5t110.5 -71t72 -108t25.5 -135.5zM382 12q70 0 129 24t101.5 66t66 99.5t23.5 125.5t-23.5 125.5
t-66 99.5t-101.5 66t-129 24q-71 0 -129.5 -24t-101 -66t-66 -99.5t-23.5 -125.5t23.5 -125.5t66 -99.5t101 -66t129.5 -24zM348 726l99 144h32l-104 -144h-27z" />
    <glyph glyph-name="Ocircumflex" unicode="&#xd4;" horiz-adv-x="764" 
d="M730 327q0 -74 -25.5 -136t-72 -107.5t-110.5 -71t-140 -25.5q-77 0 -140.5 25.5t-110 71t-72 107.5t-25.5 136q0 73 25.5 135.5t72 108t110 71t140.5 25.5q76 0 140 -25.5t110.5 -71t72 -108t25.5 -135.5zM382 12q70 0 129 24t101.5 66t66 99.5t23.5 125.5t-23.5 125.5
t-66 99.5t-101.5 66t-129 24q-71 0 -129.5 -24t-101 -66t-66 -99.5t-23.5 -125.5t23.5 -125.5t66 -99.5t101 -66t129.5 -24zM470 726l-87 119h-2l-87 -119h-26l102 144h24l102 -144h-26z" />
    <glyph glyph-name="Otilde" unicode="&#xd5;" horiz-adv-x="764" 
d="M730 327q0 -74 -25.5 -136t-72 -107.5t-110.5 -71t-140 -25.5q-77 0 -140.5 25.5t-110 71t-72 107.5t-25.5 136q0 73 25.5 135.5t72 108t110 71t140.5 25.5q76 0 140 -25.5t110.5 -71t72 -108t25.5 -135.5zM382 12q70 0 129 24t101.5 66t66 99.5t23.5 125.5t-23.5 125.5
t-66 99.5t-101.5 66t-129 24q-71 0 -129.5 -24t-101 -66t-66 -99.5t-23.5 -125.5t23.5 -125.5t66 -99.5t101 -66t129.5 -24zM547 836q-21 -104 -92 -104q-29 0 -46.5 12.5t-31.5 27.5t-29.5 27.5t-39.5 12.5q-29 0 -45.5 -21t-24.5 -61h-21q21 104 92 104q28 0 46 -12.5
t32 -27.5t29.5 -27.5t39.5 -12.5q29 0 45.5 21t24.5 61h21z" />
    <glyph glyph-name="Odieresis" unicode="&#xd6;" horiz-adv-x="764" 
d="M730 327q0 -74 -25.5 -136t-72 -107.5t-110.5 -71t-140 -25.5q-77 0 -140.5 25.5t-110 71t-72 107.5t-25.5 136q0 73 25.5 135.5t72 108t110 71t140.5 25.5q76 0 140 -25.5t110.5 -71t72 -108t25.5 -135.5zM382 12q70 0 129 24t101.5 66t66 99.5t23.5 125.5t-23.5 125.5
t-66 99.5t-101.5 66t-129 24q-71 0 -129.5 -24t-101 -66t-66 -99.5t-23.5 -125.5t23.5 -125.5t66 -99.5t101 -66t129.5 -24zM469 757q-11 0 -19.5 8.5t-8.5 19.5t8.5 19.5t19.5 8.5t19.5 -8.5t8.5 -19.5t-8.5 -19.5t-19.5 -8.5zM295 757q-11 0 -19.5 8.5t-8.5 19.5t8.5 19.5
t19.5 8.5t19.5 -8.5t8.5 -19.5t-8.5 -19.5t-19.5 -8.5z" />
    <glyph glyph-name="multiply" unicode="&#xd7;" horiz-adv-x="562" 
d="M281 246l-194 -194l-16 16l194 194l-194 194l16 16l194 -194l194 194l16 -16l-194 -194l194 -194l-16 -16z" />
    <glyph glyph-name="Oslash" unicode="&#xd8;" horiz-adv-x="764" 
d="M34 0l91 90q-44 45 -67.5 105t-23.5 132q0 73 25.5 135.5t72 108t110 71t140.5 25.5q72 0 133 -22.5t106 -63.5l74 73h35l-91 -91q43 -45 67 -105t24 -131q0 -74 -25.5 -136t-72 -107.5t-110.5 -71t-140 -25.5q-72 0 -133 22.5t-107 63.5l-73 -73h-35zM382 12
q70 0 129 24t101.5 66t66 99.5t23.5 125.5q0 65 -21.5 120.5t-60.5 97.5l-459 -453q42 -38 98 -59t123 -21zM62 327q0 -66 21.5 -121t60.5 -97l458 453q-42 38 -98 59t-122 21q-71 0 -129.5 -24t-101 -66t-66 -99.5t-23.5 -125.5z" />
    <glyph glyph-name="Ugrave" unicode="&#xd9;" horiz-adv-x="644" 
d="M566 654h27v-400q0 -61 -17.5 -110.5t-52 -84t-84.5 -53.5t-115 -19q-66 0 -116.5 19t-85 53.5t-52.5 84t-18 110.5v400h28v-400q0 -111 62.5 -176.5t181.5 -65.5q58 0 103.5 17.5t76 49t46.5 76t16 99.5v400zM328 726l-104 144h32l99 -144h-27z" />
    <glyph glyph-name="Uacute" unicode="&#xda;" horiz-adv-x="644" 
d="M566 654h27v-400q0 -61 -17.5 -110.5t-52 -84t-84.5 -53.5t-115 -19q-66 0 -116.5 19t-85 53.5t-52.5 84t-18 110.5v400h28v-400q0 -111 62.5 -176.5t181.5 -65.5q58 0 103.5 17.5t76 49t46.5 76t16 99.5v400zM288 726l99 144h32l-104 -144h-27z" />
    <glyph glyph-name="Ucircumflex" unicode="&#xdb;" horiz-adv-x="644" 
d="M566 654h27v-400q0 -61 -17.5 -110.5t-52 -84t-84.5 -53.5t-115 -19q-66 0 -116.5 19t-85 53.5t-52.5 84t-18 110.5v400h28v-400q0 -111 62.5 -176.5t181.5 -65.5q58 0 103.5 17.5t76 49t46.5 76t16 99.5v400zM410 726l-87 119h-2l-87 -119h-26l102 144h24l102 -144h-26z
" />
    <glyph glyph-name="Udieresis" unicode="&#xdc;" horiz-adv-x="644" 
d="M566 654h27v-400q0 -61 -17.5 -110.5t-52 -84t-84.5 -53.5t-115 -19q-66 0 -116.5 19t-85 53.5t-52.5 84t-18 110.5v400h28v-400q0 -111 62.5 -176.5t181.5 -65.5q58 0 103.5 17.5t76 49t46.5 76t16 99.5v400zM409 757q-11 0 -19.5 8.5t-8.5 19.5t8.5 19.5t19.5 8.5
t19.5 -8.5t8.5 -19.5t-8.5 -19.5t-19.5 -8.5zM235 757q-11 0 -19.5 8.5t-8.5 19.5t8.5 19.5t19.5 8.5t19.5 -8.5t8.5 -19.5t-8.5 -19.5t-19.5 -8.5z" />
    <glyph glyph-name="Yacute" unicode="&#xdd;" horiz-adv-x="647" 
d="M310 0v294l-284 360h36l261 -332h2l261 332h35l-283 -359v-295h-28zM290 726l99 144h32l-104 -144h-27z" />
    <glyph glyph-name="Thorn" unicode="&#xde;" horiz-adv-x="599" 
d="M67 0v654h28v-103h273q52 0 91.5 -15t65 -41t38.5 -62.5t13 -78.5t-13 -78.5t-38.5 -63t-65 -41.5t-91.5 -15h-273v-156h-28zM368 181q47 0 81 13t56 36.5t32.5 55t10.5 68.5t-10.5 68.5t-32.5 54.5t-56 36t-81 13h-273v-345h273z" />
    <glyph glyph-name="germandbls" unicode="&#xdf;" horiz-adv-x="584" 
d="M65 0v521q0 50 14.5 87.5t41 63t63.5 38.5t82 13t81.5 -12t63 -35.5t41 -57.5t14.5 -78q0 -63 -28.5 -102t-77.5 -57v-2q94 -8 144 -58t50 -135q0 -46 -15.5 -83t-44 -62.5t-68 -39.5t-86.5 -14q-43 0 -80 12.5t-64.5 34.5t-45.5 52.5t-23 67.5h26q4 -31 19.5 -57.5
t40 -45.5t57 -29.5t70.5 -10.5q41 0 75.5 12t59.5 34.5t39 55t14 73.5q0 83 -54 129t-165 46h-57v24h14q79 0 127 38.5t48 116.5q0 39 -13 68.5t-36 50t-55 30.5t-71 10q-79 0 -127 -44.5t-48 -133.5v-521h-26z" />
    <glyph glyph-name="agrave" unicode="&#xe0;" horiz-adv-x="609" 
d="M560 0h-25v135h-2q-29 -68 -91.5 -108t-147.5 -40q-58 0 -106.5 19.5t-84 54t-55 82.5t-19.5 104t19.5 104t55 82.5t84 54t107.5 19.5q58 0 107 -19.5t84 -54t54.5 -83t19.5 -105.5v-245zM295 11q54 0 98 18t75.5 49.5t48.5 74.5t17 94t-17 94t-48.5 74.5t-75.5 49.5
t-98 18t-98 -18t-75.5 -49.5t-48.5 -74.5t-17 -94t17 -94t48.5 -74.5t75.5 -49.5t98 -18zM307 576l-104 144h32l99 -144h-27z" />
    <glyph glyph-name="aacute" unicode="&#xe1;" horiz-adv-x="609" 
d="M560 0h-25v135h-2q-29 -68 -91.5 -108t-147.5 -40q-58 0 -106.5 19.5t-84 54t-55 82.5t-19.5 104t19.5 104t55 82.5t84 54t107.5 19.5q58 0 107 -19.5t84 -54t54.5 -83t19.5 -105.5v-245zM295 11q54 0 98 18t75.5 49.5t48.5 74.5t17 94t-17 94t-48.5 74.5t-75.5 49.5
t-98 18t-98 -18t-75.5 -49.5t-48.5 -74.5t-17 -94t17 -94t48.5 -74.5t75.5 -49.5t98 -18zM267 576l99 144h32l-104 -144h-27z" />
    <glyph glyph-name="acircumflex" unicode="&#xe2;" horiz-adv-x="609" 
d="M560 0h-25v135h-2q-29 -68 -91.5 -108t-147.5 -40q-58 0 -106.5 19.5t-84 54t-55 82.5t-19.5 104t19.5 104t55 82.5t84 54t107.5 19.5q58 0 107 -19.5t84 -54t54.5 -83t19.5 -105.5v-245zM295 11q54 0 98 18t75.5 49.5t48.5 74.5t17 94t-17 94t-48.5 74.5t-75.5 49.5
t-98 18t-98 -18t-75.5 -49.5t-48.5 -74.5t-17 -94t17 -94t48.5 -74.5t75.5 -49.5t98 -18zM389 576l-87 119h-2l-87 -119h-26l102 144h24l102 -144h-26z" />
    <glyph glyph-name="atilde" unicode="&#xe3;" horiz-adv-x="609" 
d="M560 0h-25v135h-2q-29 -68 -91.5 -108t-147.5 -40q-58 0 -106.5 19.5t-84 54t-55 82.5t-19.5 104t19.5 104t55 82.5t84 54t107.5 19.5q58 0 107 -19.5t84 -54t54.5 -83t19.5 -105.5v-245zM295 11q54 0 98 18t75.5 49.5t48.5 74.5t17 94t-17 94t-48.5 74.5t-75.5 49.5
t-98 18t-98 -18t-75.5 -49.5t-48.5 -74.5t-17 -94t17 -94t48.5 -74.5t75.5 -49.5t98 -18zM465 686q-21 -104 -92 -104q-29 0 -46.5 12.5t-31.5 27.5t-29.5 27.5t-39.5 12.5q-29 0 -45.5 -21t-24.5 -61h-21q21 104 92 104q28 0 46 -12.5t32 -27.5t29.5 -27.5t39.5 -12.5
q29 0 45.5 21t24.5 61h21z" />
    <glyph glyph-name="adieresis" unicode="&#xe4;" horiz-adv-x="609" 
d="M560 0h-25v135h-2q-29 -68 -91.5 -108t-147.5 -40q-58 0 -106.5 19.5t-84 54t-55 82.5t-19.5 104t19.5 104t55 82.5t84 54t107.5 19.5q58 0 107 -19.5t84 -54t54.5 -83t19.5 -105.5v-245zM295 11q54 0 98 18t75.5 49.5t48.5 74.5t17 94t-17 94t-48.5 74.5t-75.5 49.5
t-98 18t-98 -18t-75.5 -49.5t-48.5 -74.5t-17 -94t17 -94t48.5 -74.5t75.5 -49.5t98 -18zM387 607q-11 0 -19.5 8.5t-8.5 19.5t8.5 19.5t19.5 8.5t19.5 -8.5t8.5 -19.5t-8.5 -19.5t-19.5 -8.5zM213 607q-11 0 -19.5 8.5t-8.5 19.5t8.5 19.5t19.5 8.5t19.5 -8.5t8.5 -19.5
t-8.5 -19.5t-19.5 -8.5z" />
    <glyph glyph-name="aring" unicode="&#xe5;" horiz-adv-x="609" 
d="M560 0h-25v135h-2q-29 -68 -91.5 -108t-147.5 -40q-58 0 -106.5 19.5t-84 54t-55 82.5t-19.5 104t19.5 104t55 82.5t84 54t107.5 19.5q58 0 107 -19.5t84 -54t54.5 -83t19.5 -105.5v-245zM295 11q54 0 98 18t75.5 49.5t48.5 74.5t17 94t-17 94t-48.5 74.5t-75.5 49.5
t-98 18t-98 -18t-75.5 -49.5t-48.5 -74.5t-17 -94t17 -94t48.5 -74.5t75.5 -49.5t98 -18zM300 566q-38 0 -63.5 25.5t-25.5 63.5t25.5 63.5t63.5 25.5t63.5 -25.5t25.5 -63.5t-25.5 -63.5t-63.5 -25.5zM364 655q0 28 -17.5 47t-46.5 19q-28 0 -46 -19t-18 -47t18 -47t46 -19
q29 0 46.5 19t17.5 47z" />
    <glyph glyph-name="ae" unicode="&#xe6;" horiz-adv-x="1093" 
d="M1064 245h-504q0 -50 17.5 -93t49 -74.5t75 -49t97.5 -17.5q76 0 132 34.5t84 93.5h28q-29 -69 -92.5 -110.5t-151.5 -41.5q-86 0 -148 39.5t-90 108.5h-2v-135h-24v135h-2q-29 -68 -91.5 -108t-147.5 -40q-58 0 -106.5 19.5t-84 54t-55 82.5t-19.5 104t19.5 104t55 82.5
t84 54t107.5 19.5q47 0 88 -13t73 -36.5t55 -57t35 -74.5h2q11 40 34 73.5t55 57.5t73 37t89 13q58 0 107 -19.5t84 -54t54.5 -82.5t19.5 -104v-2zM295 11q54 0 98 18t75.5 49.5t48.5 74.5t17 94t-17 94t-48.5 74.5t-75.5 49.5t-98 18t-98 -18t-75.5 -49.5t-48.5 -74.5
t-17 -94t17 -94t48.5 -74.5t75.5 -49.5t98 -18zM799 483q-51 0 -93 -16t-73.5 -44.5t-50 -68t-22.5 -85.5h477q-4 46 -22.5 85.5t-49.5 68t-73 44.5t-93 16z" />
    <glyph glyph-name="ccedilla" unicode="&#xe7;" horiz-adv-x="580" 
d="M241 -93l32 79v2q-54 4 -99 25t-77.5 55t-50 79.5t-17.5 99.5q0 56 19.5 104t55 82.5t84 54t107.5 19.5q46 0 87 -12.5t73.5 -35t56 -54.5t35.5 -71h-27q-24 68 -83 108.5t-142 40.5q-54 0 -98 -18t-75.5 -49.5t-48.5 -74.5t-17 -94t17 -94t48.5 -74.5t75.5 -49.5t98 -18
q83 0 142 40.5t83 108.5h27q-12 -39 -35.5 -71t-56 -54.5t-73 -35t-86.5 -12.5l-24 -61v-2q8 4 15 5t17 1q34 0 57.5 -20t23.5 -53q0 -38 -26 -59.5t-71 -21.5q-40 0 -66.5 19t-31.5 51h22q5 -21 24.5 -34.5t51.5 -13.5q34 0 53.5 14.5t19.5 44.5q0 22 -15.5 36.5
t-41.5 14.5q-16 0 -24.5 -2.5t-20.5 -8.5z" />
    <glyph glyph-name="egrave" unicode="&#xe8;" horiz-adv-x="589" 
d="M56 245q0 -50 17.5 -93t49 -74.5t75 -49t97.5 -17.5q76 0 132 34.5t84 93.5h28q-29 -69 -92.5 -110.5t-151.5 -41.5q-59 0 -107.5 19.5t-84 54t-55 82.5t-19.5 104t19.5 104t55 82.5t84 54t107.5 19.5q58 0 107 -19.5t84 -54t54.5 -82.5t19.5 -104v-2h-504zM295 483
q-51 0 -93 -16t-73.5 -44.5t-50 -68t-22.5 -85.5h477q-4 46 -22.5 85.5t-49.5 68t-73 44.5t-93 16zM301 576l-104 144h32l99 -144h-27z" />
    <glyph glyph-name="eacute" unicode="&#xe9;" horiz-adv-x="589" 
d="M56 245q0 -50 17.5 -93t49 -74.5t75 -49t97.5 -17.5q76 0 132 34.5t84 93.5h28q-29 -69 -92.5 -110.5t-151.5 -41.5q-59 0 -107.5 19.5t-84 54t-55 82.5t-19.5 104t19.5 104t55 82.5t84 54t107.5 19.5q58 0 107 -19.5t84 -54t54.5 -82.5t19.5 -104v-2h-504zM295 483
q-51 0 -93 -16t-73.5 -44.5t-50 -68t-22.5 -85.5h477q-4 46 -22.5 85.5t-49.5 68t-73 44.5t-93 16zM261 576l99 144h32l-104 -144h-27z" />
    <glyph glyph-name="ecircumflex" unicode="&#xea;" horiz-adv-x="589" 
d="M56 245q0 -50 17.5 -93t49 -74.5t75 -49t97.5 -17.5q76 0 132 34.5t84 93.5h28q-29 -69 -92.5 -110.5t-151.5 -41.5q-59 0 -107.5 19.5t-84 54t-55 82.5t-19.5 104t19.5 104t55 82.5t84 54t107.5 19.5q58 0 107 -19.5t84 -54t54.5 -82.5t19.5 -104v-2h-504zM295 483
q-51 0 -93 -16t-73.5 -44.5t-50 -68t-22.5 -85.5h477q-4 46 -22.5 85.5t-49.5 68t-73 44.5t-93 16zM383 576l-87 119h-2l-87 -119h-26l102 144h24l102 -144h-26z" />
    <glyph glyph-name="edieresis" unicode="&#xeb;" horiz-adv-x="589" 
d="M56 245q0 -50 17.5 -93t49 -74.5t75 -49t97.5 -17.5q76 0 132 34.5t84 93.5h28q-29 -69 -92.5 -110.5t-151.5 -41.5q-59 0 -107.5 19.5t-84 54t-55 82.5t-19.5 104t19.5 104t55 82.5t84 54t107.5 19.5q58 0 107 -19.5t84 -54t54.5 -82.5t19.5 -104v-2h-504zM295 483
q-51 0 -93 -16t-73.5 -44.5t-50 -68t-22.5 -85.5h477q-4 46 -22.5 85.5t-49.5 68t-73 44.5t-93 16zM381 607q-11 0 -19.5 8.5t-8.5 19.5t8.5 19.5t19.5 8.5t19.5 -8.5t8.5 -19.5t-8.5 -19.5t-19.5 -8.5zM207 607q-11 0 -19.5 8.5t-8.5 19.5t8.5 19.5t19.5 8.5t19.5 -8.5
t8.5 -19.5t-8.5 -19.5t-19.5 -8.5z" />
    <glyph glyph-name="igrave" unicode="&#xec;" horiz-adv-x="164" 
d="M89 576l-104 144h32l99 -144h-27zM69 0v494h26v-494h-26z" />
    <glyph glyph-name="iacute" unicode="&#xed;" horiz-adv-x="164" 
d="M49 576l99 144h32l-104 -144h-27zM69 0v494h26v-494h-26z" />
    <glyph glyph-name="icircumflex" unicode="&#xee;" horiz-adv-x="164" 
d="M69 0v494h26v-494h-26zM171 576l-87 119h-2l-87 -119h-26l102 144h24l102 -144h-26z" />
    <glyph glyph-name="idieresis" unicode="&#xef;" horiz-adv-x="164" 
d="M153 607q-11 0 -19.5 8.5t-8.5 19.5t8.5 19.5t19.5 8.5t19.5 -8.5t8.5 -19.5t-8.5 -19.5t-19.5 -8.5zM11 607q-11 0 -19.5 8.5t-8.5 19.5t8.5 19.5t19.5 8.5t19.5 -8.5t8.5 -19.5t-8.5 -19.5t-19.5 -8.5zM69 0v494h26v-494h-26z" />
    <glyph glyph-name="eth" unicode="&#xf0;" horiz-adv-x="589" 
d="M560 267q0 -67 -19.5 -119t-54.5 -88t-84 -54.5t-107 -18.5q-59 0 -107.5 19.5t-84 54t-55 82.5t-19.5 104t19.5 104t54.5 82.5t83.5 54t106.5 19.5q72 0 128.5 -30t90.5 -81h2q-22 61 -62 116t-98 97l-252 -93v24l227 84v2q-41 26 -87.5 44t-100.5 27l38 13
q51 -11 96 -30t84 -45l125 46v-24l-100 -37v-2q42 -33 74.5 -73t55 -85t34.5 -94t12 -99zM295 11q54 0 98 18t75.5 49.5t48.5 74.5t17 94t-17 94t-48.5 74.5t-75.5 49.5t-98 18t-98 -18t-75.5 -49.5t-48.5 -74.5t-17 -94t17 -94t48.5 -74.5t75.5 -49.5t98 -18z" />
    <glyph glyph-name="ntilde" unicode="&#xf1;" horiz-adv-x="586" 
d="M511 0v259q0 54 -15.5 95.5t-44 70t-69 43.5t-89.5 15q-50 0 -90 -15t-68.5 -43.5t-44 -70t-15.5 -95.5v-259h-26v259q0 61 17.5 107.5t49.5 77.5t77 47t100 16t100 -16t77 -47t49.5 -77.5t17.5 -107.5v-259h-26zM458 686q-21 -104 -92 -104q-29 0 -46.5 12.5t-31.5 27.5
t-29.5 27.5t-39.5 12.5q-29 0 -45.5 -21t-24.5 -61h-21q21 104 92 104q28 0 46 -12.5t32 -27.5t29.5 -27.5t39.5 -12.5q29 0 45.5 21t24.5 61h21z" />
    <glyph glyph-name="ograve" unicode="&#xf2;" horiz-adv-x="590" 
d="M561 247q0 -56 -19.5 -104t-55 -82.5t-84.5 -54t-107 -19.5q-59 0 -107.5 19.5t-84 54t-55 82.5t-19.5 104t19.5 104t55 82.5t84 54t107.5 19.5q58 0 107 -19.5t84.5 -54t55 -82.5t19.5 -104zM295 11q54 0 98 18t75.5 49.5t48.5 74.5t17 94t-17 94t-48.5 74.5t-75.5 49.5
t-98 18t-98 -18t-75.5 -49.5t-48.5 -74.5t-17 -94t17 -94t48.5 -74.5t75.5 -49.5t98 -18zM301 576l-104 144h32l99 -144h-27z" />
    <glyph glyph-name="oacute" unicode="&#xf3;" horiz-adv-x="590" 
d="M561 247q0 -56 -19.5 -104t-55 -82.5t-84.5 -54t-107 -19.5q-59 0 -107.5 19.5t-84 54t-55 82.5t-19.5 104t19.5 104t55 82.5t84 54t107.5 19.5q58 0 107 -19.5t84.5 -54t55 -82.5t19.5 -104zM295 11q54 0 98 18t75.5 49.5t48.5 74.5t17 94t-17 94t-48.5 74.5t-75.5 49.5
t-98 18t-98 -18t-75.5 -49.5t-48.5 -74.5t-17 -94t17 -94t48.5 -74.5t75.5 -49.5t98 -18zM261 576l99 144h32l-104 -144h-27z" />
    <glyph glyph-name="ocircumflex" unicode="&#xf4;" horiz-adv-x="590" 
d="M561 247q0 -56 -19.5 -104t-55 -82.5t-84.5 -54t-107 -19.5q-59 0 -107.5 19.5t-84 54t-55 82.5t-19.5 104t19.5 104t55 82.5t84 54t107.5 19.5q58 0 107 -19.5t84.5 -54t55 -82.5t19.5 -104zM295 11q54 0 98 18t75.5 49.5t48.5 74.5t17 94t-17 94t-48.5 74.5t-75.5 49.5
t-98 18t-98 -18t-75.5 -49.5t-48.5 -74.5t-17 -94t17 -94t48.5 -74.5t75.5 -49.5t98 -18zM383 576l-87 119h-2l-87 -119h-26l102 144h24l102 -144h-26z" />
    <glyph glyph-name="otilde" unicode="&#xf5;" horiz-adv-x="590" 
d="M561 247q0 -56 -19.5 -104t-55 -82.5t-84.5 -54t-107 -19.5q-59 0 -107.5 19.5t-84 54t-55 82.5t-19.5 104t19.5 104t55 82.5t84 54t107.5 19.5q58 0 107 -19.5t84.5 -54t55 -82.5t19.5 -104zM295 11q54 0 98 18t75.5 49.5t48.5 74.5t17 94t-17 94t-48.5 74.5t-75.5 49.5
t-98 18t-98 -18t-75.5 -49.5t-48.5 -74.5t-17 -94t17 -94t48.5 -74.5t75.5 -49.5t98 -18zM460 686q-21 -104 -92 -104q-29 0 -46.5 12.5t-31.5 27.5t-29.5 27.5t-39.5 12.5q-29 0 -45.5 -21t-24.5 -61h-21q21 104 92 104q28 0 46 -12.5t32 -27.5t29.5 -27.5t39.5 -12.5
q29 0 45.5 21t24.5 61h21z" />
    <glyph glyph-name="odieresis" unicode="&#xf6;" horiz-adv-x="590" 
d="M561 247q0 -56 -19.5 -104t-55 -82.5t-84.5 -54t-107 -19.5q-59 0 -107.5 19.5t-84 54t-55 82.5t-19.5 104t19.5 104t55 82.5t84 54t107.5 19.5q58 0 107 -19.5t84.5 -54t55 -82.5t19.5 -104zM295 11q54 0 98 18t75.5 49.5t48.5 74.5t17 94t-17 94t-48.5 74.5t-75.5 49.5
t-98 18t-98 -18t-75.5 -49.5t-48.5 -74.5t-17 -94t17 -94t48.5 -74.5t75.5 -49.5t98 -18zM382 607q-11 0 -19.5 8.5t-8.5 19.5t8.5 19.5t19.5 8.5t19.5 -8.5t8.5 -19.5t-8.5 -19.5t-19.5 -8.5zM208 607q-11 0 -19.5 8.5t-8.5 19.5t8.5 19.5t19.5 8.5t19.5 -8.5t8.5 -19.5
t-8.5 -19.5t-19.5 -8.5z" />
    <glyph glyph-name="divide" unicode="&#xf7;" horiz-adv-x="562" 
d="M281 33q-11 0 -20 9t-9 20t9 20t20 9t20 -9t9 -20t-9 -20t-20 -9zM281 433q-11 0 -20 9t-9 20t9 20t20 9t20 -9t9 -20t-9 -20t-20 -9zM52 251v22h458v-22h-458z" />
    <glyph glyph-name="oslash" unicode="&#xf8;" horiz-adv-x="590" 
d="M29 0l68 67q-32 35 -50 80.5t-18 99.5q0 56 19.5 104t55 82.5t84 54t107.5 19.5q54 0 100 -17t81 -47l52 51h33l-68 -68q32 -34 50 -79.5t18 -99.5q0 -56 -19.5 -104t-55 -82.5t-84.5 -54t-107 -19.5q-55 0 -101 16.5t-81 47.5l-51 -51h-33zM56 247q0 -97 59 -162
l343 340q-31 27 -72 42.5t-91 15.5q-54 0 -98 -18t-75.5 -49.5t-48.5 -74.5t-17 -94zM295 11q54 0 98 18t75.5 49.5t48.5 74.5t17 94q0 48 -15 89t-44 72l-343 -339q31 -28 72 -43t91 -15z" />
    <glyph glyph-name="ugrave" unicode="&#xf9;" horiz-adv-x="586" 
d="M511 494h26v-259q0 -61 -17.5 -107.5t-49.5 -77.5t-77 -47t-100 -16t-100 16t-77 47t-49.5 77.5t-17.5 107.5v259h26v-259q0 -54 15.5 -95.5t44 -70t68.5 -43.5t90 -15q49 0 89.5 15t69 43.5t44 70t15.5 95.5v259zM299 576l-104 144h32l99 -144h-27z" />
    <glyph glyph-name="uacute" unicode="&#xfa;" horiz-adv-x="586" 
d="M511 494h26v-259q0 -61 -17.5 -107.5t-49.5 -77.5t-77 -47t-100 -16t-100 16t-77 47t-49.5 77.5t-17.5 107.5v259h26v-259q0 -54 15.5 -95.5t44 -70t68.5 -43.5t90 -15q49 0 89.5 15t69 43.5t44 70t15.5 95.5v259zM259 576l99 144h32l-104 -144h-27z" />
    <glyph glyph-name="ucircumflex" unicode="&#xfb;" horiz-adv-x="586" 
d="M511 494h26v-259q0 -61 -17.5 -107.5t-49.5 -77.5t-77 -47t-100 -16t-100 16t-77 47t-49.5 77.5t-17.5 107.5v259h26v-259q0 -54 15.5 -95.5t44 -70t68.5 -43.5t90 -15q49 0 89.5 15t69 43.5t44 70t15.5 95.5v259zM381 576l-87 119h-2l-87 -119h-26l102 144h24l102 -144
h-26z" />
    <glyph glyph-name="udieresis" unicode="&#xfc;" horiz-adv-x="586" 
d="M511 494h26v-259q0 -61 -17.5 -107.5t-49.5 -77.5t-77 -47t-100 -16t-100 16t-77 47t-49.5 77.5t-17.5 107.5v259h26v-259q0 -54 15.5 -95.5t44 -70t68.5 -43.5t90 -15q49 0 89.5 15t69 43.5t44 70t15.5 95.5v259zM380 607q-11 0 -19.5 8.5t-8.5 19.5t8.5 19.5t19.5 8.5
t19.5 -8.5t8.5 -19.5t-8.5 -19.5t-19.5 -8.5zM206 607q-11 0 -19.5 8.5t-8.5 19.5t8.5 19.5t19.5 8.5t19.5 -8.5t8.5 -19.5t-8.5 -19.5t-19.5 -8.5z" />
    <glyph glyph-name="yacute" unicode="&#xfd;" horiz-adv-x="602" 
d="M511 115h-2q-28 -61 -83.5 -94.5t-133.5 -33.5q-54 0 -99 16t-77 47t-49.5 77.5t-17.5 107.5v259h26v-259q0 -54 15.5 -95.5t44 -70t68.5 -43.5t90 -15q49 0 89.5 15t69 43.5t44 70.5t15.5 95v259h26v-476q0 -65 -19 -110.5t-52.5 -75t-79 -43t-97.5 -13.5q-83 0 -146 38
t-89 113h27q24 -63 79 -95t129 -32q47 0 87.5 12t70.5 38.5t47 67.5t17 100v97zM267 576l99 144h32l-104 -144h-27z" />
    <glyph glyph-name="thorn" unicode="&#xfe;" horiz-adv-x="625" 
d="M65 -211v921h26v-347h2q29 66 91 105t147 39q58 0 106.5 -19.5t84 -54t55 -82.5t19.5 -104t-19.5 -104t-55 -82.5t-84 -54t-106.5 -19.5q-85 0 -147 39t-91 105h-2v-342h-26zM330 11q54 0 98 17.5t75.5 49t48.5 75t17 94.5t-17 94t-48.5 74.5t-75.5 49.5t-98 18t-98 -18
t-75.5 -49.5t-48.5 -74.5t-17 -94t17 -94.5t48.5 -75t75.5 -49t98 -17.5z" />
    <glyph glyph-name="ydieresis" unicode="&#xff;" horiz-adv-x="602" 
d="M511 115h-2q-28 -61 -83.5 -94.5t-133.5 -33.5q-54 0 -99 16t-77 47t-49.5 77.5t-17.5 107.5v259h26v-259q0 -54 15.5 -95.5t44 -70t68.5 -43.5t90 -15q49 0 89.5 15t69 43.5t44 70.5t15.5 95v259h26v-476q0 -65 -19 -110.5t-52.5 -75t-79 -43t-97.5 -13.5q-83 0 -146 38
t-89 113h27q24 -63 79 -95t129 -32q47 0 87.5 12t70.5 38.5t47 67.5t17 100v97zM388 607q-11 0 -19.5 8.5t-8.5 19.5t8.5 19.5t19.5 8.5t19.5 -8.5t8.5 -19.5t-8.5 -19.5t-19.5 -8.5zM214 607q-11 0 -19.5 8.5t-8.5 19.5t8.5 19.5t19.5 8.5t19.5 -8.5t8.5 -19.5t-8.5 -19.5
t-19.5 -8.5z" />
    <glyph glyph-name="dotlessi" unicode="&#x131;" horiz-adv-x="164" 
d="M69 0v494h26v-494h-26z" />
    <glyph glyph-name="OE" unicode="&#x152;" horiz-adv-x="1226" 
d="M702 0v191h-2q-15 -38 -42 -74.5t-66.5 -65t-92 -46.5t-117.5 -18q-77 0 -140.5 25.5t-110 71t-72 107.5t-25.5 136q0 73 25.5 135.5t72 108t110 71t140.5 25.5q65 0 117 -18t92 -47t67 -65.5t42 -73.5h2v191h478v-25h-450v-284h392v-25h-392v-295h450v-25h-478zM382 12
q70 0 129 24t101.5 66t66 99.5t23.5 125.5t-23.5 125.5t-66 99.5t-101.5 66t-129 24q-71 0 -129.5 -24t-101 -66t-66 -99.5t-23.5 -125.5t23.5 -125.5t66 -99.5t101 -66t129.5 -24z" />
    <glyph glyph-name="oe" unicode="&#x153;" horiz-adv-x="1093" 
d="M1064 245h-504q0 -50 17.5 -93t49 -74.5t75 -49t97.5 -17.5q76 0 132 34.5t84 93.5h28q-29 -69 -92.5 -110.5t-151.5 -41.5q-48 0 -89 13t-73 36.5t-54.5 56.5t-34.5 74h-2q-12 -41 -35 -74t-55 -56.5t-73 -36.5t-88 -13q-59 0 -107.5 19.5t-84 54t-55 82.5t-19.5 104
t19.5 104t55 82.5t84 54t107.5 19.5q47 0 87.5 -13t73 -36.5t55.5 -56t35 -72.5h2q12 40 35 72.5t55 56t73 36.5t88 13q58 0 107 -19.5t84 -54t54.5 -82.5t19.5 -104v-2zM295 11q54 0 98 18t75.5 49.5t48.5 74.5t17 94t-17 94t-48.5 74.5t-75.5 49.5t-98 18t-98 -18
t-75.5 -49.5t-48.5 -74.5t-17 -94t17 -94t48.5 -74.5t75.5 -49.5t98 -18zM799 483q-51 0 -93 -16t-73.5 -44.5t-50 -68t-22.5 -85.5h477q-4 46 -22.5 85.5t-49.5 68t-73 44.5t-93 16z" />
    <glyph glyph-name="Scaron" unicode="&#x160;" horiz-adv-x="544" 
d="M462 486q-2 75 -54.5 115.5t-136.5 40.5q-43 0 -78 -10.5t-60 -31.5t-39 -51t-14 -69q0 -42 18.5 -67t48 -39.5t68 -21t78 -12t78 -13.5t68 -25t48 -46t18.5 -77q0 -44 -17 -79.5t-47.5 -60.5t-74 -38.5t-96.5 -13.5t-95.5 13t-73.5 38t-48 60.5t-18 80.5h28
q2 -80 58.5 -123.5t148.5 -43.5q47 0 85 11.5t65 33t42 52.5t15 70q0 42 -18.5 67t-48 39.5t-68 21t-78 12t-78 13.5t-68 25t-48 46t-18.5 77q0 42 15.5 76.5t44.5 59t69 38t90 13.5q49 0 89 -13t68.5 -36.5t44.5 -57t17 -74.5h-28zM263 726l-102 144h26l87 -119h2l87 119
h26l-102 -144h-24z" />
    <glyph glyph-name="scaron" unicode="&#x161;" horiz-adv-x="462" 
d="M387 365q-2 54 -43.5 86t-113.5 32t-114 -33t-42 -90q0 -42 26 -61t65.5 -27t85.5 -11.5t85.5 -14.5t65.5 -35t26 -73q0 -33 -14 -60.5t-39.5 -47.5t-62 -31.5t-81.5 -11.5t-81 11t-61.5 31t-39.5 46.5t-15 58.5h26q1 -27 13.5 -50t35 -39.5t53.5 -25.5t69 -9
q79 0 124.5 35.5t45.5 92.5q0 42 -26 61t-65.5 27t-85.5 11.5t-85.5 14.5t-65.5 35t-26 73q0 65 49 106t134 41t133 -40.5t50 -101.5h-26zM220 576l-102 144h26l87 -119h2l87 119h26l-102 -144h-24z" />
    <glyph glyph-name="Ydieresis" unicode="&#x178;" horiz-adv-x="647" 
d="M310 0v294l-284 360h36l261 -332h2l261 332h35l-283 -359v-295h-28zM410 757q-11 0 -19.5 8.5t-8.5 19.5t8.5 19.5t19.5 8.5t19.5 -8.5t8.5 -19.5t-8.5 -19.5t-19.5 -8.5zM236 757q-11 0 -19.5 8.5t-8.5 19.5t8.5 19.5t19.5 8.5t19.5 -8.5t8.5 -19.5t-8.5 -19.5
t-19.5 -8.5z" />
    <glyph glyph-name="Zcaron" unicode="&#x17d;" horiz-adv-x="595" 
d="M82 26v-1h465v-25h-504v21l455 606v2h-440v25h479v-21zM286 726l-102 144h26l87 -119h2l87 119h26l-102 -144h-24z" />
    <glyph glyph-name="zcaron" unicode="&#x17e;" horiz-adv-x="534" 
d="M37 0v20l406 448v2h-391v24h430v-20l-406 -448v-2h416v-24h-455zM255 576l-102 144h26l87 -119h2l87 119h26l-102 -144h-24z" />
    <glyph glyph-name="florin" unicode="&#x192;" 
d="M56 -108v23h24q69 0 101 37.5t38 108.5l27 326h-144v23h146l9 104q7 83 45 126t121 43h43v-23h-44q-69 0 -101 -37.5t-38 -108.5l-9 -104h162v-23h-164l-27 -326q-7 -83 -45 -126t-121 -43h-23z" />
    <glyph glyph-name="uni0237" unicode="&#x237;" horiz-adv-x="164" 
d="M-61 -218v23h5q69 0 97 33t28 111v545h26v-545q0 -87 -35 -127t-116 -40h-5z" />
    <glyph glyph-name="circumflex" unicode="&#x2c6;" horiz-adv-x="320" 
d="M248 576l-87 119h-2l-87 -119h-26l102 144h24l102 -144h-26z" />
    <glyph glyph-name="tilde" unicode="&#x2dc;" horiz-adv-x="320" 
d="M325 686q-21 -104 -92 -104q-29 0 -46.5 12.5t-31.5 27.5t-29.5 27.5t-39.5 12.5q-29 0 -45.5 -21t-24.5 -61h-21q21 104 92 104q28 0 46 -12.5t32 -27.5t29.5 -27.5t39.5 -12.5q29 0 45.5 21t24.5 61h21z" />
    <glyph glyph-name="endash" unicode="&#x2013;" horiz-adv-x="500" 
d="M50 265v23h400v-23h-400z" />
    <glyph glyph-name="emdash" unicode="&#x2014;" horiz-adv-x="1000" 
d="M50 265v23h900v-23h-900z" />
    <glyph glyph-name="quoteleft" unicode="&#x2018;" horiz-adv-x="226" 
d="M125 654h18l-27 -101q11 -2 18.5 -10t7.5 -19t-9 -20t-20 -9t-20 9t-9 20q0 8 3 17z" />
    <glyph glyph-name="quoteright" unicode="&#x2019;" horiz-adv-x="226" 
d="M83 508l27 101q-11 2 -18.5 10t-7.5 19t9 20t20 9t20 -9t9 -20q0 -8 -3 -17l-38 -113h-18z" />
    <glyph glyph-name="quotesinglbase" unicode="&#x201a;" horiz-adv-x="226" 
d="M83 -114l27 101q-11 2 -18.5 10t-7.5 19t9 20t20 9t20 -9t9 -20q0 -8 -3 -17l-38 -113h-18z" />
    <glyph glyph-name="quotedblleft" unicode="&#x201c;" horiz-adv-x="346" 
d="M125 654h18l-27 -101q11 -2 18.5 -10t7.5 -19t-9 -20t-20 -9t-20 9t-9 20q0 8 3 17zM245 654h18l-27 -101q11 -2 18.5 -10t7.5 -19t-9 -20t-20 -9t-20 9t-9 20q0 8 3 17z" />
    <glyph glyph-name="quotedblright" unicode="&#x201d;" horiz-adv-x="346" 
d="M83 508l27 101q-11 2 -18.5 10t-7.5 19t9 20t20 9t20 -9t9 -20q0 -8 -3 -17l-38 -113h-18zM203 508l27 101q-11 2 -18.5 10t-7.5 19t9 20t20 9t20 -9t9 -20q0 -8 -3 -17l-38 -113h-18z" />
    <glyph glyph-name="quotedblbase" unicode="&#x201e;" horiz-adv-x="346" 
d="M83 -114l27 101q-11 2 -18.5 10t-7.5 19t9 20t20 9t20 -9t9 -20q0 -8 -3 -17l-38 -113h-18zM203 -114l27 101q-11 2 -18.5 10t-7.5 19t9 20t20 9t20 -9t9 -20q0 -8 -3 -17l-38 -113h-18z" />
    <glyph glyph-name="dagger" unicode="&#x2020;" horiz-adv-x="556" 
d="M271 -104l-7 310l7 216l-1 1l-216 -7v28l216 -7l1 1l-7 216h28l-7 -216l1 -1l216 7v-28l-216 7l-1 -1l7 -216l-7 -310h-14z" />
    <glyph glyph-name="daggerdbl" unicode="&#x2021;" horiz-adv-x="556" 
d="M264 -104l7 216l-1 1l-216 -7v28l216 -7l1 1l-7 147l7 147l-1 1l-216 -7v28l216 -7l1 1l-7 216h28l-7 -216l1 -1l216 7v-28l-216 7l-1 -1l7 -147l-7 -147l1 -1l216 7v-28l-216 7l-1 -1l7 -216h-28z" />
    <glyph glyph-name="bullet" unicode="&#x2022;" horiz-adv-x="396" 
d="M198 146q-26 0 -49 10t-40 27t-27 40t-10 49t10 49t27 40t40 27t49 10t49 -10t40 -27t27 -40t10 -49t-10 -49t-27 -40t-40 -27t-49 -10z" />
    <glyph glyph-name="ellipsis" unicode="&#x2026;" horiz-adv-x="1000" 
d="M201 -13q-11 0 -20 9t-9 20t9 20t20 9t20 -9t9 -20t-9 -20t-20 -9zM500 -13q-11 0 -20 9t-9 20t9 20t20 9t20 -9t9 -20t-9 -20t-20 -9zM799 -13q-11 0 -20 9t-9 20t9 20t20 9t20 -9t9 -20t-9 -20t-20 -9z" />
    <glyph glyph-name="perthousand" unicode="&#x2030;" horiz-adv-x="1034" 
d="M848 -13q-31 0 -58 12t-47.5 32t-32 47.5t-11.5 58.5t11.5 58t32 47t47.5 32t58 12t58 -12t47.5 -32t32 -47t11.5 -58t-11.5 -58.5t-32 -47.5t-47.5 -32t-58 -12zM848 10q26 0 49 10t39.5 27t26 40.5t9.5 49.5t-9.5 49t-26 40t-39.5 27t-49 10t-49 -10t-39.5 -27t-26 -40
t-9.5 -49t9.5 -49.5t26 -40.5t39.5 -27t49 -10zM105 0l442 654h30l-442 -654h-30zM186 368q-31 0 -58 12t-47.5 32t-32 47.5t-11.5 58.5t11.5 58t32 47t47.5 32t58 12t58 -12t47.5 -32t32 -47t11.5 -58t-11.5 -58.5t-32 -47.5t-47.5 -32t-58 -12zM186 391q26 0 49 10
t39.5 27t26 40.5t9.5 49.5t-9.5 49t-26 40t-39.5 27t-49 10t-49 -10t-39.5 -27t-26 -40t-9.5 -49t9.5 -49.5t26 -40.5t39.5 -27t49 -10zM498 -13q-31 0 -58 12t-47.5 32t-32 47.5t-11.5 58.5t11.5 58t32 47t47.5 32t58 12t58 -12t47.5 -32t32 -47t11.5 -58t-11.5 -58.5
t-32 -47.5t-47.5 -32t-58 -12zM498 10q26 0 49 10t39.5 27t26 40.5t9.5 49.5t-9.5 49t-26 40t-39.5 27t-49 10t-49 -10t-39.5 -27t-26 -40t-9.5 -49t9.5 -49.5t26 -40.5t39.5 -27t49 -10z" />
    <glyph glyph-name="guilsinglleft" unicode="&#x2039;" horiz-adv-x="344" 
d="M247 48l-185 199l185 199h34l-185 -199l185 -199h-34z" />
    <glyph glyph-name="guilsinglright" unicode="&#x203a;" horiz-adv-x="344" 
d="M63 48l185 199l-185 199h34l185 -199l-185 -199h-34z" />
    <glyph glyph-name="Euro" unicode="&#x20ac;" 
d="M482 155q-7 -37 -26 -68t-47 -53t-64.5 -34.5t-78.5 -12.5q-48 0 -88.5 16t-70 44.5t-45.5 68.5t-16 89v244q0 49 16 89t45.5 68.5t70 44.5t88.5 16q42 0 78.5 -12.5t64.5 -34.5t47 -53t26 -68h-26q-14 65 -65 104.5t-125 39.5q-43 0 -78.5 -14t-61 -39.5t-40 -61.5
t-14.5 -79v-20h288l-7 -24h-281v-142h241l-7 -24h-234v-34q0 -43 14.5 -79t40 -61.5t61 -39.5t78.5 -14q74 0 125 39.5t65 104.5h26z" />
    <glyph glyph-name="trademark" unicode="&#x2122;" horiz-adv-x="896" 
d="M805 282v332h-2l-179 -332h-22l-177 332h-2v-332h-22v372h30l181 -345h2l183 345h32v-372h-24zM166 282v350h-139v22h303v-22h-140v-350h-24z" />
    </font>
</defs>
</svg>
