<svg xmlns="http://www.w3.org/2000/svg" width="417" height="25" viewBox="0 0 417 25" fill="none">
<path d="M396.541 24.6716C391.764 24.6716 386.987 24.6741 382.209 24.6706C379.088 24.6686 377.01 22.607 377.005 19.4951C376.998 14.7217 376.998 9.94785 377.005 5.17447C377.01 2.06006 379.08 0.0039712 382.211 0.0029784C391.788 -0.0009928 401.366 -0.0009928 410.943 0.0029784C414.067 0.0044676 416.146 2.07098 416.15 5.17646C416.157 9.97317 416.157 14.7699 416.15 19.5666C416.146 22.5753 414.038 24.6671 411.011 24.6701C406.187 24.675 401.364 24.6716 396.541 24.6716H396.541ZM396.603 1.03152C391.824 1.03152 387.046 1.02904 382.268 1.03251C379.634 1.0345 378.033 2.64134 378.032 5.28517C378.029 9.96721 378.029 14.6488 378.032 19.3308C378.033 22.0605 379.619 23.6475 382.352 23.6485C391.838 23.651 401.325 23.6505 410.812 23.6485C413.518 23.648 415.112 22.0699 415.115 19.3864C415.119 14.6815 415.119 9.97665 415.115 5.27127C415.112 2.62298 413.518 1.034 410.867 1.03201C406.113 1.02904 401.357 1.03102 396.603 1.03152Z" fill="currentcolor"/>
<path d="M184.444 0.00139455C189.198 0.00139455 193.952 -0.000591049 198.706 0.00189095C201.963 0.00387655 203.995 2.03862 203.998 5.29997C204.001 10.0272 204.001 14.7544 203.998 19.4816C203.995 22.5896 201.915 24.669 198.803 24.67C189.202 24.673 179.601 24.673 170 24.67C166.942 24.669 164.857 22.5801 164.852 19.5089C164.845 14.7355 164.845 9.96166 164.852 5.18828C164.856 2.06642 166.92 0.00635855 170.043 0.00288375C174.843 -0.00257665 179.643 0.00139455 184.444 0.00139455ZM184.448 1.03093C179.646 1.03093 174.845 1.02745 170.044 1.03242C167.503 1.0349 165.881 2.66557 165.878 5.21608C165.874 9.94428 165.875 14.6725 165.878 19.4007C165.88 22.0321 167.493 23.6469 170.129 23.6479C179.662 23.6514 189.195 23.6519 198.728 23.6479C201.363 23.6469 202.959 22.0361 202.962 19.3853C202.966 14.6804 202.966 9.97556 202.962 5.27018C202.959 2.62288 201.364 1.03341 198.713 1.03192C193.958 1.02894 189.203 1.03093 184.448 1.03142L184.448 1.03093Z" fill="currentcolor"/>
<path d="M237.544 24.6716C232.791 24.6716 228.036 24.6731 223.283 24.6711C220.067 24.6696 218.003 22.6214 218.002 19.4286C217.999 14.7014 217.999 9.97416 218.002 5.24695C218.004 2.07793 220.057 0.0044676 223.21 0.0029784C232.787 -0.0009928 242.365 -0.0009928 251.942 0.0029784C255.076 0.0044676 257.141 2.05261 257.147 5.17398C257.157 9.97069 257.156 14.7674 257.147 19.5641C257.141 22.5842 255.042 24.6671 252.015 24.6701C247.191 24.675 242.368 24.6716 237.544 24.6716ZM237.535 1.03152C232.804 1.03152 228.072 1.03003 223.34 1.03201C220.627 1.03301 219.042 2.59865 219.039 5.28716C219.035 9.99203 219.035 14.6969 219.039 19.4023C219.042 22.0461 220.643 23.647 223.288 23.648C232.821 23.651 242.354 23.6515 251.888 23.648C254.515 23.647 256.12 22.0272 256.121 19.3849C256.124 14.68 256.124 9.97515 256.121 5.26978C256.119 2.63439 254.514 1.0345 251.87 1.03251C247.092 1.02953 242.314 1.03152 237.535 1.03152Z" fill="currentcolor"/>
<path d="M19.5348 24.6719C14.7577 24.6719 9.98065 24.6744 5.20307 24.671C2.09097 24.669 0.00614406 22.591 0.00316644 19.487C-0.000803704 14.7137 -0.00129997 9.93979 0.00316644 5.16641C0.00614406 2.10213 2.09146 0.0053363 5.15146 0.0038471C14.7756 -0.0011169 24.3992 -0.0016133 34.0234 0.0043435C37.059 0.0063291 39.1389 2.0783 39.1468 5.11478C39.1592 9.95766 39.1607 14.801 39.1468 19.6439C39.1379 22.5722 37.0149 24.666 34.0755 24.67C29.2289 24.6764 24.3819 24.6719 19.5353 24.6719H19.5348ZM19.6226 1.03139C14.8212 1.03139 10.0199 1.02842 5.21845 1.03288C2.66217 1.03537 1.04384 2.64668 1.03987 5.20115C1.03292 9.95269 1.03292 14.7037 1.03987 19.4553C1.04335 22.0445 2.66168 23.6474 5.27255 23.6484C14.8059 23.6523 24.3387 23.6523 33.872 23.6484C36.5112 23.6474 38.1206 22.0341 38.1225 19.4012C38.1255 14.6963 38.1255 9.99141 38.1225 5.28604C38.1211 2.64023 36.5231 1.03437 33.8874 1.03239C29.1326 1.02891 24.3774 1.03139 19.6226 1.03139Z" fill="currentcolor"/>
<path d="M74.5046 0.00317691C79.2817 0.00317691 84.0592 0.000694912 88.8363 0.00416971C92.0511 0.00665171 94.0933 2.04537 94.0963 5.25856C94.1007 10.0091 94.1012 14.7597 94.0963 19.5097C94.0933 22.5785 92.0085 24.6708 88.9505 24.6718C79.3263 24.6752 69.7022 24.6757 60.078 24.6718C57.0647 24.6703 54.9575 22.565 54.9536 19.5544C54.9471 14.7343 54.9466 9.9143 54.9536 5.09475C54.958 2.1233 57.0617 0.0131049 60.0334 0.00714811C64.8571 -0.00277989 69.6808 0.00466611 74.5041 0.00416971L74.5046 0.00317691ZM74.518 23.6512C79.2732 23.6512 84.028 23.6542 88.7832 23.6502C91.473 23.6482 93.0715 22.0508 93.073 19.3697C93.0754 14.6877 93.0754 10.0061 93.073 5.32409C93.072 2.62963 91.4849 1.0342 88.8021 1.0337C79.2921 1.03172 69.7821 1.03221 60.2716 1.0337C57.5823 1.0337 55.9784 2.63013 55.9774 5.30522C55.9749 9.96394 55.9754 14.6227 55.9774 19.2814C55.9784 22.0686 57.5501 23.6497 60.3222 23.6512C65.0541 23.6537 69.7861 23.6517 74.518 23.6517V23.6512Z" fill="currentcolor"/>
<path d="M129.478 0.00359751C134.255 0.00359751 139.032 0.000619109 143.809 0.00459031C146.981 0.00707231 149.045 2.0582 149.049 5.21381C149.054 9.98719 149.054 14.7611 149.049 19.5345C149.045 22.5873 146.946 24.6707 143.874 24.6717C134.273 24.6747 124.672 24.6747 115.071 24.6717C112.001 24.6707 109.909 22.5888 109.905 19.529C109.9 14.7556 109.9 9.98173 109.905 5.20835C109.908 2.05224 111.966 0.00756871 115.146 0.00459031C119.923 -0.000373691 124.701 0.00310111 129.478 0.00359751ZM129.488 1.03263C124.732 1.03263 119.978 1.03115 115.222 1.03313C112.53 1.03462 110.93 2.62409 110.929 5.30068C110.926 9.98272 110.926 14.6643 110.929 19.3463C110.93 22.0646 112.524 23.6491 115.266 23.6501C124.752 23.6526 134.239 23.6526 143.726 23.6501C146.415 23.6491 148.022 22.0502 148.024 19.3736C148.028 14.6916 148.027 10.01 148.024 5.32798C148.022 2.63402 146.432 1.03462 143.753 1.03363C138.998 1.03115 134.243 1.03313 129.488 1.03313V1.03263Z" fill="currentcolor"/>
<path d="M343.514 24.6712C338.737 24.6712 333.959 24.6737 329.182 24.6702C326.077 24.6677 324.005 22.5883 324.003 19.4714C323.999 14.7209 323.999 9.97081 324.003 5.22026C324.005 2.0582 326.062 0.0040953 329.23 0.0026061C338.785 -0.0008687 348.339 -0.0008687 357.894 0.0026061C361.102 0.0035989 363.143 2.05274 363.146 5.26941C363.149 10.02 363.15 14.77 363.146 19.5205C363.142 22.5809 361.05 24.6677 357.984 24.6702C353.161 24.6742 348.337 24.6712 343.514 24.6712ZM343.58 1.03115C338.825 1.03115 334.07 1.02916 329.315 1.03214C326.624 1.03363 325.028 2.62459 325.027 5.30515C325.024 9.98719 325.024 14.6687 325.027 19.3508C325.028 22.0413 326.622 23.6476 329.299 23.6481C338.809 23.6511 348.319 23.6506 357.829 23.6481C360.515 23.6471 362.119 22.0457 362.121 19.3667C362.125 14.6846 362.124 10.0031 362.121 5.32104C362.12 2.62955 360.528 1.03313 357.845 1.03214C353.09 1.02966 348.335 1.03164 343.58 1.03115H343.58Z" fill="currentcolor"/>
<path d="M290.632 24.6714C285.832 24.6714 281.031 24.6734 276.231 24.6705C273.074 24.6685 271.005 22.6015 271.003 19.4468C270.999 14.6963 270.999 9.94624 271.003 5.19569C271.006 2.08178 273.076 0.0048399 276.19 0.0033507C285.791 -0.0011169 295.391 -0.0011169 304.992 0.0033507C308.066 0.0048399 310.14 2.07929 310.145 5.15449C310.152 9.9512 310.151 14.7479 310.145 19.5446C310.141 22.5682 308.047 24.666 305.033 24.6695C300.233 24.6744 295.432 24.6709 290.632 24.6709L290.632 24.6714ZM290.559 1.03139C285.781 1.03139 281.002 1.02792 276.224 1.03288C273.674 1.03537 272.032 2.66157 272.029 5.19271C272.023 9.94425 272.023 14.6953 272.029 19.4468C272.032 22.0212 273.668 23.6464 276.262 23.6479C285.795 23.6518 295.328 23.6513 304.861 23.6479C307.504 23.6469 309.121 22.0351 309.123 19.4096C309.126 14.7276 309.125 10.046 309.123 5.36397C309.122 2.59505 307.546 1.03239 304.754 1.03139C300.022 1.0299 295.29 1.03139 290.559 1.03139Z" fill="currentcolor"/>
<path d="M397.547 19.5546H395.584V18.2108C394.489 17.6762 393.488 17.1877 392.345 16.6298C392.888 15.9755 393.276 15.4672 393.718 15.012C393.8 14.9276 394.143 14.9981 394.297 15.0999C395.069 15.6087 395.88 15.983 396.827 15.911C397.395 15.8678 397.964 15.7502 398.103 15.0641C398.244 14.3672 397.767 14.0624 397.233 13.8256C396.471 13.4881 395.695 13.1823 394.942 12.8279C393.693 12.2406 392.893 11.3183 392.914 9.86634C392.935 8.42132 393.738 7.48709 395.01 6.95644C395.468 6.76533 395.596 6.5211 395.555 6.07781C395.528 5.78146 395.55 5.48114 395.55 5.07012C396.166 5.07012 396.738 5.03587 397.299 5.09693C397.422 5.11033 397.611 5.47022 397.595 5.65438C397.531 6.35083 397.686 6.82887 398.487 6.86709C398.553 6.87007 398.618 6.91077 398.683 6.93559C400.483 7.63006 400.58 8.22574 399.118 9.48659C398.6 9.26669 398.11 8.97034 397.581 8.86014C397.104 8.76036 396.561 8.7827 396.091 8.90978C395.829 8.98076 395.513 9.36051 395.482 9.63055C395.452 9.8991 395.693 10.261 395.917 10.4789C396.137 10.6933 396.477 10.7916 396.774 10.9182C397.413 11.1902 398.064 11.4345 398.699 11.7144C399.983 12.2813 400.729 13.2334 400.694 14.6794C400.66 16.0986 399.95 17.1753 398.65 17.6251C397.726 17.9448 397.474 18.4143 397.604 19.2706C397.613 19.3342 397.579 19.4042 397.548 19.5556L397.547 19.5546Z" fill="currentcolor"/>
<path d="M184.084 14.8319V11.9756C184.02 11.9567 183.956 11.9374 183.893 11.9185C183.533 12.6954 183.137 13.4573 182.827 14.2536C182.614 14.7991 182.291 14.9609 181.728 14.9391C181.328 14.9232 181.16 14.7614 181.015 14.4333C180.605 13.5065 180.171 12.5906 179.746 11.6703C179.676 11.6762 179.605 11.6822 179.534 11.6887C179.534 12.1463 179.534 12.604 179.534 13.0612C179.534 14.3075 178.903 14.9275 177.641 14.9212C177.595 14.9212 177.547 14.9153 177.502 14.9217C177.097 14.9813 176.833 14.8294 176.74 14.4179C176.622 13.8927 176.284 13.7174 175.768 13.7745C175.493 13.8048 175.209 13.8058 174.935 13.7745C174.333 13.706 173.919 13.8515 173.74 14.5117C173.692 14.6894 173.361 14.8502 173.133 14.9048C172.85 14.9723 172.538 14.9212 172.138 14.9212C172.217 14.671 172.26 14.4819 172.335 14.3062C172.911 12.9664 173.509 11.636 174.06 10.2868C174.228 9.87829 174.446 9.73632 174.885 9.7383C176.274 9.74475 176.273 9.72738 176.832 11.0111C177.222 11.9081 177.617 12.8036 178.009 13.6996C178.069 13.6832 178.129 13.6668 178.188 13.6504V9.75766C178.868 9.75766 179.488 9.71894 180.097 9.78149C180.275 9.79986 180.475 10.0803 180.577 10.2848C180.996 11.1297 181.381 11.991 181.872 13.0473C182.328 12.0679 182.689 11.2608 183.08 10.4685C183.206 10.2124 183.383 9.82468 183.584 9.79291C184.124 9.70653 184.691 9.75915 185.241 9.81475C185.314 9.82219 185.398 10.1657 185.401 10.3548C185.416 11.5129 185.409 12.671 185.409 13.8296C185.409 14.647 184.967 14.9816 184.084 14.8334L184.084 14.8319ZM174.564 12.5365H175.927C175.701 11.9989 175.508 11.5392 175.236 10.8929C174.971 11.5422 174.785 11.9959 174.564 12.5365Z" fill="currentcolor"/>
<path d="M186.445 14.9192V9.74823C187.109 9.74823 187.748 9.74823 188.385 9.74823C189.336 9.74823 190.288 9.78397 191.237 9.73532C191.851 9.70405 192.301 9.87233 192.662 10.3737C192.888 10.6864 193.186 10.947 193.515 11.2985C194.358 10.3801 195.081 9.25332 196.649 9.88871C196.183 10.3896 195.733 10.8731 195.283 11.3556C194.695 11.986 194.697 12.6302 195.289 13.2881C195.734 13.781 196.184 14.2689 196.648 14.7782C195.044 15.4444 194.347 14.257 193.492 13.2955C193.063 13.7532 192.701 14.1697 192.304 14.5489C192.134 14.7117 191.891 14.8994 191.678 14.9028C189.965 14.9316 188.251 14.9187 186.445 14.9187V14.9192ZM190.927 14.0853C191.316 13.6693 191.832 13.1426 192.31 12.5827C192.404 12.473 192.425 12.1662 192.341 12.0649C191.848 11.4687 191.313 10.9068 190.945 10.5023C190.498 10.6939 190.229 10.8845 189.943 10.9148C189.417 10.9704 188.881 10.9267 188.349 10.9331C188.055 10.9366 187.656 10.883 187.76 11.3496C187.798 11.5154 188.114 11.703 188.322 11.7294C188.777 11.7869 189.245 11.7477 189.707 11.7482C190.718 11.7497 190.746 11.7864 190.519 12.9227C189.76 12.9227 188.979 12.8979 188.201 12.9431C188.038 12.9525 187.891 13.2205 187.737 13.3695C187.889 13.4906 188.036 13.7045 188.196 13.716C188.795 13.7581 189.4 13.706 189.999 13.7482C190.259 13.7666 190.509 13.9279 190.926 14.0853H190.927Z" fill="currentcolor"/>
<path d="M239.084 14.5008C239.19 13.79 239.296 13.0657 239.405 12.342C239.56 11.3134 239.727 10.2869 239.871 9.25684C239.933 8.81752 240.128 8.60407 240.598 8.62889C241.128 8.65719 241.662 8.63088 242.194 8.63584C243.49 8.64775 244.095 9.05331 244.205 9.97711C244.346 11.1551 243.628 12.2759 242.541 12.5326C242.207 12.6115 241.851 12.6686 241.512 12.6423C240.974 12.6001 240.745 12.8344 240.711 13.3358C240.705 13.4276 240.688 13.5189 240.676 13.6108C240.535 14.7247 240.341 14.8423 239.083 14.5003L239.084 14.5008ZM241.108 11.3487C242.058 11.5065 242.507 11.2841 242.591 10.6473C242.669 10.0575 242.326 9.86592 241.821 9.83515C241.223 9.79841 241.111 10.0322 241.108 11.3492V11.3487Z" fill="currentcolor"/>
<path d="M226.403 8.58789C226.932 8.64001 227.471 8.64299 227.986 8.75667C228.645 8.90211 228.997 9.35334 229.024 10.0528C229.086 11.6492 228.197 12.6311 226.535 12.6286C225.805 12.6276 225.576 12.8803 225.507 13.5623C225.398 14.6316 225.275 14.6906 224.425 14.6415C224.019 14.6177 223.905 14.4548 223.966 14.0696C224.226 12.4231 224.456 10.7711 224.743 9.12946C224.776 8.93934 225.077 8.70554 225.29 8.65838C225.644 8.57995 226.028 8.63703 226.399 8.63703C226.4 8.62065 226.402 8.60427 226.403 8.58789ZM225.942 11.3648C226.949 11.4908 227.402 11.2347 227.442 10.5601C227.476 9.97979 227.087 9.86364 226.64 9.83435C226.05 9.79563 225.895 10.1347 225.942 11.3648Z" fill="currentcolor"/>
<path d="M243.91 12.9771C243.92 11.2268 245.487 10.1501 247.123 10.7125C247.454 10.8262 247.881 10.6654 248.263 10.6262C248.742 10.5765 248.94 10.7254 248.834 11.2551C248.663 12.1158 248.556 12.9895 248.42 13.8572C248.305 14.5899 247.811 14.924 247.162 14.5715C246.799 14.374 246.59 14.4762 246.296 14.5904C245.029 15.0823 243.902 14.3154 243.91 12.9776V12.9771ZM247.306 12.4673C247.257 11.9451 246.973 11.6462 246.412 11.6532C245.786 11.6606 245.275 12.1953 245.297 12.8212C245.315 13.3623 245.637 13.6026 246.146 13.6155C246.777 13.6314 247.308 13.1067 247.306 12.4678V12.4673Z" fill="currentcolor"/>
<path d="M231.036 10.542C231.082 10.5445 231.132 10.537 231.174 10.5509C231.8 10.7555 232.426 10.7659 233.073 10.6338C233.627 10.5207 233.741 10.8125 233.647 11.3169C233.496 12.133 233.389 12.9575 233.272 13.78C233.153 14.6254 232.666 14.8845 231.867 14.5425C231.712 14.4765 231.485 14.4477 231.341 14.5122C230.602 14.8428 229.887 14.8637 229.266 14.3102C228.66 13.7711 228.661 13.0444 228.83 12.3181C229.067 11.3 230.017 10.5485 231.037 10.541L231.036 10.542ZM231.053 13.6212C231.606 13.6311 232.118 13.1347 232.113 12.4963C232.109 11.9309 231.801 11.6554 231.249 11.6534C230.645 11.651 230.161 12.128 230.14 12.745C230.12 13.3084 230.411 13.5939 231.053 13.6212H231.053Z" fill="currentcolor"/>
<path d="M234.276 15.8683C234.37 15.702 234.413 15.562 234.506 15.4707C235.339 14.6491 235.378 13.7606 234.87 12.7335C234.57 12.1269 234.437 11.4374 234.23 10.7891C235.334 10.4128 235.587 10.53 235.876 11.4816C235.997 11.8787 236.119 12.2753 236.291 12.8397C236.681 12.2679 237.006 11.7918 237.33 11.3153C237.862 10.5335 238.043 10.4724 239.149 10.7574C239.033 10.9658 238.942 11.1639 238.821 11.3421C237.901 12.7013 236.976 14.0569 236.05 15.4126C235.57 16.116 235.241 16.2088 234.276 15.8683Z" fill="currentcolor"/>
<path d="M249.728 14.7713C249.11 14.6943 249.029 14.4352 249.099 14.0028C249.354 12.4293 249.586 10.8517 249.839 9.27762C249.933 8.69236 250.485 8.40346 250.998 8.67995C251.11 8.74051 251.202 8.98276 251.182 9.12373C250.94 10.8165 250.696 12.5097 250.389 14.191C250.348 14.4173 249.957 14.5797 249.728 14.7713Z" fill="currentcolor"/>
<path d="M18.3651 12.346C18.3562 9.62374 20.5403 7.40831 23.2385 7.40235C25.9317 7.39689 28.1362 9.60984 28.1436 12.3256C28.1511 15.032 25.9412 17.2723 23.2593 17.2777C20.5711 17.2837 18.3746 15.0697 18.3656 12.3455L18.3651 12.346Z" fill="currentcolor"/>
<path d="M18.5771 8.30403C16.6402 11.0193 16.6511 13.6949 18.5667 16.3596C17.2535 17.6041 14.2993 17.6785 12.4973 15.8692C10.5877 13.9511 10.5107 10.9523 12.336 8.97516C13.9826 7.1911 16.8883 6.86546 18.5771 8.30403Z" fill="currentcolor"/>
<path d="M85.1763 15.8899H83.613C83.4215 15.5216 83.2974 14.973 83.09 14.9398C82.4165 14.8316 81.7128 14.9095 81.021 14.9264C80.9729 14.9274 80.8955 15.0093 80.8845 15.0644C80.6116 16.4478 79.5555 15.7777 78.7288 15.9524C78.7764 15.7301 78.7848 15.5955 78.833 15.4774C79.6488 13.4893 80.4657 11.5012 81.2915 9.51761C81.56 8.87229 83.0845 8.43347 83.6294 8.83655C83.6959 8.88569 83.7495 8.981 83.7669 9.0639C84.2363 11.3205 84.7004 13.5787 85.1763 15.8904V15.8899ZM82.5059 11.1086C82.4369 11.1006 82.3679 11.0932 82.2989 11.0852C82.0334 11.8184 81.7679 12.5516 81.4796 13.3493H82.9585C82.8006 12.568 82.6533 11.8383 82.5059 11.1086Z" fill="currentcolor"/>
<path d="M71.186 8.7634C70.4099 10.6562 69.7002 12.3866 68.9896 14.1171C68.9017 14.331 68.8084 14.543 68.7206 14.7569C68.2303 15.9478 68.2303 15.922 66.9415 15.9438C66.4492 15.9523 66.2452 15.788 66.1365 15.3213C65.8005 13.8788 65.3623 12.4571 65.0869 11.0041C64.8869 9.9493 64.3544 9.3561 63.3261 9.15307C63.141 9.11634 62.9658 9.03145 62.809 8.81949C63.875 8.81949 64.9455 8.77084 66.004 8.85771C66.2348 8.87658 66.5425 9.35312 66.6149 9.66486C66.8968 10.88 67.0983 12.1141 67.4695 13.3779C67.7131 12.7554 67.9553 12.1325 68.2 11.5105C68.463 10.8428 68.7801 10.1905 68.9766 9.50403C69.1508 8.89445 69.4779 8.68199 70.0808 8.75645C70.3965 8.79517 70.721 8.7634 71.1855 8.7634H71.186Z" fill="currentcolor"/>
<path d="M73.8624 14.2345C74.5492 14.3437 75.1621 14.5249 75.7685 14.506C76.1134 14.4951 76.4484 14.1571 76.7879 13.9659C76.572 13.6726 76.3933 13.338 76.1288 13.0982C75.8777 12.8709 75.5209 12.7647 75.237 12.5671C74.0182 11.7197 73.976 10.1715 75.1785 9.30127C76.2554 8.52242 77.4688 8.48867 78.6995 8.86146C78.8365 8.90316 78.9849 9.19405 78.9774 9.36283C78.962 9.69939 78.8424 10.031 78.7665 10.3611C78.1859 10.2822 77.6613 10.1372 77.1477 10.1685C76.8355 10.1878 76.5397 10.4792 76.2365 10.6485C76.4291 10.9061 76.5844 11.2074 76.8231 11.4095C77.102 11.6453 77.4658 11.7768 77.7725 11.9838C78.9844 12.8004 79.0662 14.3402 77.9576 15.2943C77.0717 16.0568 74.8668 16.3164 73.844 15.754C73.7254 15.6885 73.6152 15.4626 73.6311 15.3256C73.6748 14.9439 73.7869 14.5696 73.8624 14.234V14.2345Z" fill="currentcolor"/>
<path d="M73.7622 8.88631C73.4197 10.5284 73.0763 12.174 72.7324 13.8195C72.6709 14.1134 72.6113 14.4073 72.5448 14.6997C72.2386 16.0499 72.0103 16.1794 70.4952 15.8141C70.8282 14.2162 71.1607 12.6148 71.4957 11.0139C71.5667 10.6748 71.6451 10.3373 71.7195 9.99874C72.0158 8.65003 72.2624 8.50855 73.7622 8.88631Z" fill="currentcolor"/>
<path d="M130.771 13.9287C129.464 13.9158 128.43 12.8764 128.442 11.5892C128.455 10.3254 129.551 9.26753 130.827 9.28738C132.124 9.30774 133.175 10.37 133.157 11.6443C133.139 12.9315 132.084 13.9416 130.771 13.9287Z" fill="currentcolor"/>
<path d="M113.86 9.48619C114.727 9.48619 115.521 9.39386 116.283 9.50903C117.291 9.66192 117.907 10.5142 117.934 11.5463C117.96 12.5113 117.387 13.4112 116.431 13.6396C115.722 13.8088 114.964 13.794 114.228 13.8054C114.107 13.8074 113.88 13.5199 113.877 13.3626C113.848 12.0908 113.86 10.818 113.86 9.48669V9.48619ZM114.675 11.5517C114.675 11.92 114.659 12.2889 114.683 12.6557C114.693 12.7952 114.758 12.9888 114.863 13.0538C115.324 13.3393 116.584 12.9009 116.889 12.3747C117.27 11.719 117.115 10.692 116.479 10.4224C115.978 10.2099 115.376 10.2348 114.818 10.1543C114.77 10.5281 114.72 10.9014 114.675 11.2752C114.664 11.3661 114.674 11.4589 114.675 11.5512V11.5517Z" fill="currentcolor"/>
<path d="M144.157 11.9631C144.509 12.5548 144.836 13.1048 145.188 13.6971C144.654 13.9348 144.303 13.8703 144.058 13.3784C143.873 13.0061 143.686 12.6278 143.442 12.2952C143.312 12.1185 143.058 12.0331 142.682 11.7929C142.682 12.4928 142.715 12.9515 142.664 13.4002C142.646 13.5541 142.417 13.6837 142.284 13.8246C142.148 13.6807 141.898 13.5397 141.894 13.3918C141.862 12.2133 141.859 11.0329 141.896 9.85442C141.901 9.70203 142.167 9.45929 142.341 9.43C142.724 9.36596 143.125 9.40022 143.518 9.4156C144.192 9.44142 144.836 9.55857 145.079 10.3136C145.287 10.9614 145.019 11.4305 144.157 11.9631H144.157ZM142.645 11.1897C142.725 11.2672 142.805 11.3446 142.885 11.4216C143.327 11.2553 143.78 11.1103 144.197 10.8954C144.248 10.8691 144.158 10.3081 144.046 10.2734C143.668 10.1557 143.196 10.0331 142.871 10.1726C142.685 10.2525 142.714 10.8343 142.646 11.1897H142.645Z" fill="currentcolor"/>
<path d="M138.877 11.9241C138.677 13.0728 138.704 13.1061 139.725 13.109C140.073 13.11 140.425 13.0842 140.765 13.1344C140.89 13.1527 141.075 13.3548 141.075 13.4724C141.075 13.5901 140.881 13.8055 140.766 13.8095C139.956 13.8383 139.144 13.8378 138.334 13.8065C138.224 13.802 138.033 13.5752 138.031 13.4491C138.009 12.1341 138.017 10.8192 138.017 9.45703H140.941V10.1118C140.382 10.1118 139.833 10.1272 139.285 10.1068C138.88 10.0919 138.773 10.2741 138.774 10.6504C138.775 11.0281 138.889 11.2153 139.29 11.1915C139.591 11.1736 139.893 11.1766 140.194 11.1929C140.469 11.2078 140.894 11.0822 140.817 11.5692C140.794 11.7152 140.439 11.8834 140.221 11.9088C139.772 11.9614 139.312 11.9246 138.878 11.9246L138.877 11.9241Z" fill="currentcolor"/>
<path d="M120.197 13.3831C120.293 13.2506 120.339 13.1702 120.401 13.1051C120.48 13.0232 120.572 12.9537 120.649 12.8882C121.013 13.0009 121.358 13.1925 121.698 13.1841C121.938 13.1786 122.296 12.9448 122.368 12.7333C122.423 12.5745 122.155 12.2206 121.946 12.0766C121.67 11.886 121.242 11.8905 121.004 11.674C120.709 11.4055 120.358 10.992 120.368 10.6504C120.379 10.2702 120.68 9.76338 121.01 9.55439C121.698 9.11707 122.455 9.19004 123.158 9.70381C122.975 10.1506 122.753 10.3705 122.265 10.1009C122.102 10.0111 121.839 9.99818 121.664 10.0637C121.476 10.1347 121.235 10.3223 121.207 10.4901C121.181 10.6504 121.358 10.918 121.52 11.0183C121.789 11.1846 122.123 11.2422 122.42 11.3682C122.951 11.5941 123.305 11.9604 123.276 12.5814C123.248 13.1751 122.941 13.5961 122.389 13.7872C121.624 14.0523 120.896 13.9818 120.198 13.3841L120.197 13.3831Z" fill="currentcolor"/>
<path d="M127.72 9.99139C127.492 10.2788 127.291 10.4396 126.866 10.2004C126.201 9.82559 125.431 10.041 125.01 10.6213C124.577 11.2175 124.613 12.1378 125.092 12.6928C125.583 13.2627 126.302 13.4012 126.961 12.9554C127.386 12.668 127.575 12.8725 127.812 13.144C127.173 14.0783 125.615 14.1959 124.659 13.4051C123.671 12.5881 123.598 10.9092 124.5 9.97749C125.386 9.06213 127.184 9.06809 127.72 9.99139Z" fill="currentcolor"/>
<path d="M137.466 9.5197C136.907 10.8803 136.374 12.2266 135.799 13.5549C135.617 13.9749 135.08 13.9521 134.898 13.5202C134.347 12.2047 133.829 10.8749 133.284 9.51523C133.874 9.30327 134.2 9.39808 134.386 9.98731C134.653 10.8332 134.995 11.6552 135.469 12.4897C135.799 11.6393 136.158 10.7984 136.448 9.93419C136.624 9.409 136.909 9.30674 137.466 9.5197H137.466Z" fill="currentcolor"/>
<path d="M118.705 13.7559V9.48589C119.214 9.33746 119.516 9.37668 119.498 10.0146C119.469 11.0798 119.472 12.1466 119.498 13.2114C119.511 13.7644 119.29 13.9277 118.705 13.7559Z" fill="currentcolor"/>
<path d="M343.658 4.93734C348.248 4.93734 352.839 4.95173 357.429 4.92194C358.113 4.91748 358.319 5.12646 358.272 5.78668C358.218 6.52433 358.236 7.26942 358.267 8.00955C358.288 8.50446 358.093 8.64842 357.618 8.64346C355.741 8.6241 353.863 8.63601 351.985 8.63601C344.589 8.63601 337.194 8.63601 329.798 8.63601C329.197 8.63601 328.896 8.32824 328.895 7.71271C328.894 7.01775 328.928 6.3208 328.885 5.62832C328.85 5.06342 329.072 4.92542 329.608 4.92741C334.291 4.94478 338.974 4.93734 343.657 4.93734H343.658Z" fill="currentcolor"/>
<path d="M350.232 13.5566C352.503 13.5566 354.654 13.5566 356.805 13.5566C357.776 13.5566 358.261 14.0453 358.26 15.0225C358.259 15.6983 357.919 16.0365 357.24 16.0371C355.132 16.0371 353.024 16.0247 350.916 16.0461C350.42 16.051 350.187 15.9274 350.224 15.3879C350.262 14.8165 350.232 14.2402 350.232 13.5566Z" fill="currentcolor"/>
<path d="M284.621 9.89602C284.394 10.6322 284.129 11.1956 284.073 11.7794C284.041 12.1134 284.255 12.6083 284.524 12.8059C285.093 13.2244 284.989 13.5932 284.694 14.0827C284.066 15.1276 283.624 15.4815 282.956 15.2492C282.306 15.0233 281.719 15.0511 281.062 15.2273C280.74 15.3132 280.206 15.1494 279.967 14.9042C279.039 13.9511 278.592 12.7657 278.686 11.4244C278.796 9.84886 279.926 9.12114 281.441 9.54208C281.806 9.64335 282.257 9.55301 282.64 9.44827C283.552 9.19957 284.179 9.35047 284.621 9.89602Z" fill="currentcolor"/>
<path d="M287.156 15.197C287.156 12.9066 287.148 10.642 287.174 8.37792C287.175 8.23943 287.431 7.98924 287.574 7.98478C288.476 7.95847 289.386 7.92223 290.28 8.01406C291.501 8.13965 292.279 9.11806 292.277 10.3695C292.274 11.614 291.483 12.5591 290.266 12.7224C289.809 12.7835 289.341 12.7954 288.88 12.7755C288.417 12.7562 288.255 12.9463 288.285 13.3881C288.307 13.7108 288.289 14.0359 288.288 14.36C288.287 15.0226 287.91 15.3015 287.155 15.197H287.156ZM288.334 11.8552C289.307 11.743 290.384 12.1615 290.898 11.1131C291.111 10.6787 291.083 9.90435 290.824 9.50525C290.242 8.60875 289.239 8.95921 288.334 8.9468V11.8552Z" fill="currentcolor"/>
<path d="M292.857 11.4653C293.102 10.334 293.923 9.82814 295.25 9.92593C296.345 10.0063 297.023 10.6259 297.053 11.6599C297.087 12.8328 297.061 14.0078 297.061 15.2176C296.54 15.2295 295.948 15.5908 296.012 14.5941C295.76 14.7713 295.584 14.9093 295.395 15.0264C294.195 15.7681 292.628 15.1168 292.563 13.8525C292.527 13.1471 292.86 12.6105 293.604 12.401C294.154 12.2466 294.746 12.2496 295.313 12.1473C295.532 12.1076 295.915 11.9552 295.91 11.8793C295.886 11.5834 295.812 11.222 295.617 11.025C295.226 10.6318 294.401 10.6914 294.054 11.159C293.715 11.6157 293.342 11.5631 292.857 11.4653ZM295.863 12.8621C295.295 12.9326 294.723 12.956 294.181 13.0954C293.977 13.1481 293.726 13.4583 293.707 13.6708C293.687 13.8807 293.919 14.2947 294.065 14.3057C294.541 14.3424 295.073 14.3399 295.5 14.1563C295.958 13.9592 296.029 13.4563 295.863 12.8621H295.863Z" fill="currentcolor"/>
<path d="M302.489 10.0561C301.721 12.1558 300.998 14.2005 300.223 16.2253C299.935 16.9769 299.272 17.2816 298.492 17.2573C298.331 17.2524 298.044 17.0215 298.051 16.9098C298.063 16.7257 298.232 16.4482 298.395 16.3941C299.268 16.1052 299.519 15.6495 299.208 14.7743C298.736 13.4445 298.258 12.1171 297.787 10.7872C297.704 10.5549 297.64 10.3157 297.567 10.0789C298.56 9.81728 298.639 9.8565 298.909 10.7351C299.181 11.6197 299.443 12.5068 299.715 13.3914C299.779 13.5998 299.866 13.8014 300.105 14.0034C300.442 12.9069 300.777 11.8098 301.117 10.7143C301.379 9.87139 301.408 9.85799 302.488 10.0565L302.489 10.0561Z" fill="currentcolor"/>
<path d="M283.32 7.48828C283.44 8.36592 283.021 8.93032 282.042 9.21079C281.64 8.52377 282.303 7.63025 283.32 7.48828Z" fill="currentcolor"/>
</svg>